<svg height="512" viewBox="0 0 512 512" width="512" xmlns="http://www.w3.org/2000/svg"><g><path d="m278.343 118.343-56 56a8 8 0 0 0 11.314 11.314l56-56a8 8 0 1 0 -11.314-11.314z"/><circle cx="232" cy="128" r="8"/><circle cx="280" cy="176" r="8"/><path d="m256 64a88 88 0 1 0 88 88 88.1 88.1 0 0 0 -88-88zm0 160a72 72 0 1 1 72-72 72.081 72.081 0 0 1 -72 72z"/><path d="m424 8h-336a8 8 0 0 0 -8 8v480a8 8 0 0 0 8 8h336a8 8 0 0 0 8-8v-480a8 8 0 0 0 -8-8zm-8 480h-320v-184h320zm0-200h-320v-264h320z"/><path d="m128 360h48a8 8 0 0 0 8-8v-24a8 8 0 0 0 -8-8h-48a8 8 0 0 0 -8 8v24a8 8 0 0 0 8 8zm8-24h32v8h-32z"/><path d="m200 336h184a8 8 0 0 0 0-16h-184a8 8 0 0 0 0 16z"/><path d="m200 360h104a8 8 0 0 0 0-16h-104a8 8 0 0 0 0 16z"/><path d="m328 344a8 8 0 0 0 0 16h8a8 8 0 0 0 0-16z"/><path d="m128 416h48a8 8 0 0 0 8-8v-24a8 8 0 0 0 -8-8h-48a8 8 0 0 0 -8 8v24a8 8 0 0 0 8 8zm8-24h32v8h-32z"/><path d="m200 392h184a8 8 0 0 0 0-16h-184a8 8 0 0 0 0 16z"/><path d="m200 416h104a8 8 0 0 0 0-16h-104a8 8 0 0 0 0 16z"/><path d="m328 400a8 8 0 0 0 0 16h8a8 8 0 0 0 0-16z"/><path d="m128 472h48a8 8 0 0 0 8-8v-24a8 8 0 0 0 -8-8h-48a8 8 0 0 0 -8 8v24a8 8 0 0 0 8 8zm8-24h32v8h-32z"/><path d="m200 448h184a8 8 0 0 0 0-16h-184a8 8 0 0 0 0 16z"/><path d="m200 472h104a8 8 0 0 0 0-16h-104a8 8 0 0 0 0 16z"/><path d="m336 456h-8a8 8 0 0 0 0 16h8a8 8 0 0 0 0-16z"/></g></svg>