<?xml version="1.0" encoding="UTF-8"?>
<svg xmlns="http://www.w3.org/2000/svg" width="512" height="512" viewBox="0 0 512 512"><g><path d="M476,88H363.33a112,112,0,0,0-214.66,0H36A28.031,28.031,0,0,0,8,116V412a28.031,28.031,0,0,0,28,28H198.24l-4.8,24H160a8,8,0,0,0-8,8v16H104a8,8,0,0,0,0,16H376a8,8,0,0,0,0-16H360V472a8,8,0,0,0-8-8H318.56l-4.8-24H476a28.031,28.031,0,0,0,28-28V116A28.031,28.031,0,0,0,476,88ZM160,120a96,96,0,0,1,192,0v19.31a79.215,79.215,0,0,1-41.3-31.53,8.009,8.009,0,0,0-10.77-2.37c-.6.37-59.24,35.26-139.93,37.48Zm0,38.89c70.26-1.8,123.83-26.71,141.78-36.2A93.971,93.971,0,0,0,352,155.94V200c0,13.75-4.46,40.8-34.34,67.58C298.4,284.84,274.19,296,256,296s-42.4-11.16-61.66-28.42C164.46,240.8,160,213.75,160,200ZM308.14,376H273.73l-4.97-2.44,45.91-52.47,19.41,5.6Zm41.64-44.79L394.14,344a1.055,1.055,0,0,1,.19.05A72.3,72.3,0,0,1,437.34,376H326.22ZM178.4,326.55l18.93-5.46,45.83,52.39L238.11,376h-33.7ZM186.33,376H74.66a72.3,72.3,0,0,1,43.01-31.95,1.055,1.055,0,0,1,.19-.05l44.84-12.93ZM208,308.99V297.1c16.38,9.48,33.46,14.9,48,14.9s31.62-5.42,48-14.9v11.89l-48,54.86ZM24,116a12.01,12.01,0,0,1,12-12H145.15A112.642,112.642,0,0,0,144,120v24h-4c-8.38,0-28,0-28,20v16c0,7.14,2.67,15.54,7.13,22.47C124.75,211.2,132.16,216,140,216h5.52c5.31,28.2,24.04,53.02,46.48,70.35v19.63L113.51,328.6A88.352,88.352,0,0,0,56.47,376H24Zm120,44v40h-4c-4.93,0-12-11.78-12-20V164c0-2.34.47-2.55,1.12-2.84C131.72,160,137.31,160,140,160ZM344,480v8H168v-8ZM209.76,464l4.8-24h82.88l4.8,24ZM488,412a12.01,12.01,0,0,1-12,12H36a12.01,12.01,0,0,1-12-12V392H488Zm0-36H455.53a88.352,88.352,0,0,0-57.04-47.4L320,305.98V286.35c22.44-17.33,41.17-42.15,46.48-70.35H372a28.031,28.031,0,0,0,28-28V172a28.031,28.031,0,0,0-28-28h-4V120a112.642,112.642,0,0,0-1.15-16H476a12.01,12.01,0,0,1,12,12ZM368,200V160h4a12.01,12.01,0,0,1,12,12v16a12.01,12.01,0,0,1-12,12Z"/><path d="M408,488h-8a8,8,0,0,0,0,16h8a8,8,0,0,0,0-16Z"/><circle cx="208" cy="176" r="16"/><circle cx="304" cy="176" r="16"/><path d="M240,256h32a8,8,0,0,0,0-16H240a8,8,0,0,0,0,16Z"/></g></svg>
