<?xml version="1.0" encoding="UTF-8"?>
<svg xmlns="http://www.w3.org/2000/svg" width="512" height="512" viewBox="0 0 512 512"><g><path d="M256,64c-83.81,0-152,68.19-152,152a150.6,150.6,0,0,0,31.12,92.16A153.187,153.187,0,0,0,208,360.26V384H192a8,8,0,0,0-8,8v24a8,8,0,0,0,8,8v28a28.031,28.031,0,0,0,28,28h4v16a8,8,0,0,0,8,8h48a8,8,0,0,0,8-8V480h4a28.031,28.031,0,0,0,28-28V424a8,8,0,0,0,8-8V392a8,8,0,0,0-8-8H304V360.26a153.187,153.187,0,0,0,72.88-52.1A150.6,150.6,0,0,0,408,216C408,132.19,339.81,64,256,64Zm16,424H240v-8h32Zm32-36a12.01,12.01,0,0,1-12,12H220a12.01,12.01,0,0,1-12-12V424h96Zm8-52v8H200v-8ZM232,232H220a12,12,0,1,1,12-12Zm16,152V248h16V384Zm116.17-85.55a136.929,136.929,0,0,1-70.39,48.23,8.013,8.013,0,0,0-5.78,7.69V384h-8V248h12a28,28,0,1,0-28-28v12H248V220a28,28,0,1,0-28,28h12V384h-8V354.37a8.013,8.013,0,0,0-5.78-7.69,136.929,136.929,0,0,1-70.39-48.23A134.74,134.74,0,0,1,120,216c0-74.99,61.01-136,136-136s136,61.01,136,136A134.74,134.74,0,0,1,364.17,298.45ZM280,232V220a12,12,0,1,1,12,12Z"/><path d="M357.606,193.706A104.645,104.645,0,0,1,360,216a8,8,0,0,0,16,0,120.7,120.7,0,0,0-2.762-25.706,8,8,0,0,0-15.632,3.412Z"/><path d="M320.96,115.088A119.58,119.58,0,0,0,256,96a8,8,0,0,0,0,16,104.553,104.553,0,0,1,94,59.433,8,8,0,1,0,14.452-6.866A120.246,120.246,0,0,0,320.96,115.088Z"/><path d="M256,48a8,8,0,0,0,8-8V16a8,8,0,0,0-16,0V40A8,8,0,0,0,256,48Z"/><path d="M80,208H56a8,8,0,0,0,0,16H80a8,8,0,0,0,0-16Z"/><path d="M464,216a8,8,0,0,1-8,8H432a8,8,0,0,1,0-16h24A8,8,0,0,1,464,216Z"/><path d="M125.893,334.794l-16.971,16.97a8,8,0,1,0,11.313,11.314l16.971-16.97a8,8,0,1,0-11.313-11.314Z"/><path d="M380.451,99.549a7.974,7.974,0,0,0,5.656-2.343l16.971-16.97a8,8,0,1,0-11.313-11.314l-16.971,16.97a8,8,0,0,0,5.657,13.657Z"/><path d="M125.893,97.206a8,8,0,1,0,11.313-11.314l-16.971-16.97a8,8,0,1,0-11.313,11.314Z"/><path d="M386.107,334.794a8,8,0,1,0-11.313,11.314l16.971,16.97a8,8,0,1,0,11.313-11.314Z"/></g></svg>
