<svg height="512" viewBox="0 0 512 512" width="512" xmlns="http://www.w3.org/2000/svg"><g><path d="m476 32h-440a28.031 28.031 0 0 0 -28 28v392a28.031 28.031 0 0 0 28 28h440a28.031 28.031 0 0 0 28-28v-392a28.031 28.031 0 0 0 -28-28zm12 420a12.01 12.01 0 0 1 -12 12h-440a12.01 12.01 0 0 1 -12-12v-356h464zm0-372h-464v-20a12.01 12.01 0 0 1 12-12h440a12.01 12.01 0 0 1 12 12z"/><path d="m48 72h8a8 8 0 0 0 0-16h-8a8 8 0 0 0 0 16z"/><path d="m80 72h8a8 8 0 0 0 0-16h-8a8 8 0 0 0 0 16z"/><path d="m112 72h8a8 8 0 0 0 0-16h-8a8 8 0 0 0 0 16z"/><path d="m328 256h-112v-56a40 40 0 0 1 80 0v24a8 8 0 0 0 16 0v-24a56 56 0 0 0 -112 0v56h-16a8 8 0 0 0 -8 8v112a8 8 0 0 0 8 8h144a8 8 0 0 0 8-8v-112a8 8 0 0 0 -8-8zm-8 112h-128v-96h128z"/><circle cx="208" cy="288" r="8"/><circle cx="304" cy="288" r="8"/><circle cx="208" cy="352" r="8"/><circle cx="304" cy="352" r="8"/><path d="m440 440h-80a8 8 0 0 0 0 16h80a8 8 0 0 0 0-16z"/><path d="m472 440h-8a8 8 0 0 0 0 16h8a8 8 0 0 0 0-16z"/></g></svg>