<svg height="512" viewBox="0 0 512 512" width="512" xmlns="http://www.w3.org/2000/svg"><g><path d="m476 32h-440a28.031 28.031 0 0 0 -28 28v392a28.031 28.031 0 0 0 28 28h440a28.031 28.031 0 0 0 28-28v-392a28.031 28.031 0 0 0 -28-28zm12 420a12.01 12.01 0 0 1 -12 12h-440a12.01 12.01 0 0 1 -12-12v-356h464zm0-372h-464v-20a12.01 12.01 0 0 1 12-12h440a12.01 12.01 0 0 1 12 12z"/><path d="m48 72h8a8 8 0 0 0 0-16h-8a8 8 0 0 0 0 16z"/><path d="m80 72h8a8 8 0 0 0 0-16h-8a8 8 0 0 0 0 16z"/><path d="m112 72h8a8 8 0 0 0 0-16h-8a8 8 0 0 0 0 16z"/><path d="m432 432h-80a8 8 0 0 0 0 16h80a8 8 0 0 0 0-16z"/><path d="m464 432h-8a8 8 0 0 0 0 16h8a8 8 0 0 0 0-16z"/><path d="m200 192h256a8 8 0 0 0 8-8v-64a8 8 0 0 0 -8-8h-256a8 8 0 0 0 -8 8v64a8 8 0 0 0 8 8zm8-64h240v48h-240z"/><path d="m312 208h-112a8 8 0 0 0 0 16h112a8 8 0 0 0 0-16z"/><path d="m312 240h-112a8 8 0 0 0 0 16h112a8 8 0 0 0 0-16z"/><path d="m312 272h-112a8 8 0 0 0 0 16h112a8 8 0 0 0 0-16z"/><path d="m200 320h48a8 8 0 0 0 0-16h-48a8 8 0 0 0 0 16z"/><path d="m280 320a8 8 0 0 0 0-16h-8a8 8 0 0 0 0 16z"/><path d="m56 288h112a8 8 0 0 0 0-16h-112a8 8 0 0 0 0 16z"/><path d="m56 320h112a8 8 0 0 0 0-16h-112a8 8 0 0 0 0 16z"/><path d="m56 352h112a8 8 0 0 0 0-16h-112a8 8 0 0 0 0 16z"/><path d="m56 384h48a8 8 0 0 0 0-16h-48a8 8 0 0 0 0 16z"/><path d="m128 368a8 8 0 0 0 0 16h8a8 8 0 0 0 0-16z"/><path d="m456 208h-112a8 8 0 0 0 0 16h112a8 8 0 0 0 0-16z"/><path d="m456 240h-112a8 8 0 0 0 0 16h112a8 8 0 0 0 0-16z"/><path d="m456 272h-112a8 8 0 0 0 0 16h112a8 8 0 0 0 0-16z"/><path d="m344 320h48a8 8 0 0 0 0-16h-48a8 8 0 0 0 0 16z"/><path d="m424 320a8 8 0 0 0 0-16h-8a8 8 0 0 0 0 16z"/><path d="m312 336h-112a8 8 0 0 0 0 16h112a8 8 0 0 0 0-16z"/><path d="m248 384a8 8 0 0 0 0-16h-48a8 8 0 0 0 0 16z"/><path d="m280 384a8 8 0 0 0 0-16h-8a8 8 0 0 0 0 16z"/><path d="m464 344a8 8 0 0 0 -8-8h-112a8 8 0 0 0 0 16h112a8 8 0 0 0 8-8z"/><path d="m392 384a8 8 0 0 0 0-16h-48a8 8 0 0 0 0 16z"/><path d="m416 368a8 8 0 0 0 0 16h8a8 8 0 0 0 0-16z"/><path d="m56 256h112a8 8 0 0 0 8-8v-128a8 8 0 0 0 -8-8h-112a8 8 0 0 0 -8 8v128a8 8 0 0 0 8 8zm104-128v112h-96v-112z"/><path d="m312 400h-256a8 8 0 0 0 -8 8v32a8 8 0 0 0 8 8h256a8 8 0 0 0 8-8v-32a8 8 0 0 0 -8-8zm-8 32h-240v-16h240z"/></g></svg>