<svg height="512" viewBox="0 0 512 512" width="512" xmlns="http://www.w3.org/2000/svg"><g><path d="m48 72h8a8 8 0 0 0 0-16h-8a8 8 0 0 0 0 16z"/><path d="m80 72h8a8 8 0 0 0 0-16h-8a8 8 0 0 0 0 16z"/><path d="m112 72h8a8 8 0 0 0 0-16h-8a8 8 0 0 0 0 16z"/><path d="m184 184h-8a8 8 0 0 0 0 16h8a8 8 0 0 0 0-16z"/><path d="m216 184h-8a8 8 0 0 0 0 16h8a8 8 0 0 0 0-16z"/><path d="m248 184h-8a8 8 0 0 0 0 16h8a8 8 0 0 0 0-16z"/><path d="m432 432h-80a8 8 0 0 0 0 16h80a8 8 0 0 0 0-16z"/><path d="m464 432h-8a8 8 0 0 0 0 16h8a8 8 0 0 0 0-16z"/><path d="m476 160h-100v-100a28.031 28.031 0 0 0 -28-28h-312a28.031 28.031 0 0 0 -28 28v264a28.031 28.031 0 0 0 28 28h100v100a28.031 28.031 0 0 0 28 28h312a28.031 28.031 0 0 0 28-28v-264a28.031 28.031 0 0 0 -28-28zm-452-100a12.01 12.01 0 0 1 12-12h312a12.01 12.01 0 0 1 12 12v20h-336zm112 128v148h-100a12.01 12.01 0 0 1 -12-12v-228h336v64h-196a28.031 28.031 0 0 0 -28 28zm352 264a12.01 12.01 0 0 1 -12 12h-312a12.01 12.01 0 0 1 -12-12v-228h336zm0-244h-336v-20a12.01 12.01 0 0 1 12-12h312a12.01 12.01 0 0 1 12 12z"/><path d="m464 240h-288a8 8 0 0 0 -8 8v48a8 8 0 0 0 8 8h288a8 8 0 0 0 8-8v-48a8 8 0 0 0 -8-8zm-8 48h-272v-32h272z"/><path d="m280 328h80a8 8 0 0 0 0-16h-80a8 8 0 0 0 0 16z"/><path d="m256 312h-80a8 8 0 0 0 0 16h80a8 8 0 0 0 0-16z"/><path d="m464 312h-80a8 8 0 0 0 0 16h80a8 8 0 0 0 0-16z"/><path d="m280 352h80a8 8 0 0 0 0-16h-80a8 8 0 0 0 0 16z"/><path d="m256 336h-80a8 8 0 0 0 0 16h80a8 8 0 0 0 0-16z"/><path d="m256 360h-80a8 8 0 0 0 0 16h80a8 8 0 0 0 0-16z"/><path d="m464 336h-80a8 8 0 0 0 0 16h80a8 8 0 0 0 0-16z"/><path d="m280 376h80a8 8 0 0 0 0-16h-80a8 8 0 0 0 0 16z"/><path d="m368 392a8 8 0 0 0 -8-8h-80a8 8 0 0 0 0 16h80a8 8 0 0 0 8-8z"/><path d="m256 384h-80a8 8 0 0 0 0 16h80a8 8 0 0 0 0-16z"/><path d="m208 408h-32a8 8 0 0 0 0 16h32a8 8 0 0 0 0-16z"/><path d="m416 400a8 8 0 0 0 0-16h-32a8 8 0 0 0 0 16z"/><path d="m464 360h-80a8 8 0 0 0 0 16h80a8 8 0 0 0 0-16z"/></g></svg>