<svg height="512" viewBox="0 0 512 512" width="512" xmlns="http://www.w3.org/2000/svg"><g><path d="m476 56h-20v-16a8 8 0 0 0 -8-8h-32a8 8 0 0 0 -8 8v16h-40v-16a8 8 0 0 0 -8-8h-32a8 8 0 0 0 -8 8v16h-40v-16a8 8 0 0 0 -8-8h-32a8 8 0 0 0 -8 8v16h-40v-16a8 8 0 0 0 -8-8h-32a8 8 0 0 0 -8 8v16h-40v-16a8 8 0 0 0 -8-8h-32a8 8 0 0 0 -8 8v16h-20a28.031 28.031 0 0 0 -28 28v376a28.031 28.031 0 0 0 28 28h440a28.031 28.031 0 0 0 28-28v-376a28.031 28.031 0 0 0 -28-28zm-52-8h16v32h-16zm-88 0h16v32h-16zm-88 0h16v32h-16zm-88 0h16v32h-16zm-88 0h16v32h-16zm416 412a12.01 12.01 0 0 1 -12 12h-440a12.01 12.01 0 0 1 -12-12v-332h464zm0-348h-464v-28a12.01 12.01 0 0 1 12-12h20v16a8 8 0 0 0 8 8h32a8 8 0 0 0 8-8v-16h40v16a8 8 0 0 0 8 8h32a8 8 0 0 0 8-8v-16h40v16a8 8 0 0 0 8 8h32a8 8 0 0 0 8-8v-16h40v16a8 8 0 0 0 8 8h32a8 8 0 0 0 8-8v-16h40v16a8 8 0 0 0 8 8h32a8 8 0 0 0 8-8v-16h20a12.01 12.01 0 0 1 12 12z"/><path d="m304 136h-96a8 8 0 0 0 -8 8v96a8 8 0 0 0 8 8h96a8 8 0 0 0 8-8v-96a8 8 0 0 0 -8-8zm-8 96h-80v-80h80z"/><path d="m304 256h-96a8 8 0 0 0 0 16h96a8 8 0 0 0 0-16z"/><path d="m280 296a8 8 0 0 0 0-16h-48a8 8 0 0 0 0 16z"/><path d="m304 304h-96a8 8 0 0 0 -8 8v96a8 8 0 0 0 8 8h96a8 8 0 0 0 8-8v-96a8 8 0 0 0 -8-8zm-8 96h-80v-80h80z"/><path d="m304 424h-96a8 8 0 0 0 0 16h96a8 8 0 0 0 0-16z"/><path d="m280 448h-48a8 8 0 0 0 0 16h48a8 8 0 0 0 0-16z"/><path d="m160 136h-96a8 8 0 0 0 -8 8v96a8 8 0 0 0 8 8h96a8 8 0 0 0 8-8v-96a8 8 0 0 0 -8-8zm-8 96h-80v-80h80z"/><path d="m160 256h-96a8 8 0 0 0 0 16h96a8 8 0 0 0 0-16z"/><path d="m136 296a8 8 0 0 0 0-16h-48a8 8 0 0 0 0 16z"/><path d="m160 304h-96a8 8 0 0 0 -8 8v96a8 8 0 0 0 8 8h96a8 8 0 0 0 8-8v-96a8 8 0 0 0 -8-8zm-8 96h-80v-80h80z"/><path d="m160 424h-96a8 8 0 0 0 0 16h96a8 8 0 0 0 0-16z"/><path d="m136 448h-48a8 8 0 0 0 0 16h48a8 8 0 0 0 0-16z"/><path d="m448 136h-96a8 8 0 0 0 -8 8v96a8 8 0 0 0 8 8h96a8 8 0 0 0 8-8v-96a8 8 0 0 0 -8-8zm-8 96h-80v-80h80z"/><path d="m448 256h-96a8 8 0 0 0 0 16h96a8 8 0 0 0 0-16z"/><path d="m424 296a8 8 0 0 0 0-16h-48a8 8 0 0 0 0 16z"/><path d="m448 304h-96a8 8 0 0 0 -8 8v96a8 8 0 0 0 8 8h96a8 8 0 0 0 8-8v-96a8 8 0 0 0 -8-8zm-8 96h-80v-80h80z"/><path d="m448 424h-96a8 8 0 0 0 0 16h96a8 8 0 0 0 0-16z"/><path d="m424 448h-48a8 8 0 0 0 0 16h48a8 8 0 0 0 0-16z"/></g></svg>