<?xml version="1.0" encoding="UTF-8"?>
<svg xmlns="http://www.w3.org/2000/svg" width="512" height="512" viewBox="0 0 512 512"><g><circle cx="208" cy="208" r="16"/><circle cx="304" cy="208" r="16"/><path d="M398.49,368.6,320,345.98V326.35A145.032,145.032,0,0,0,335.99,312H364a28.031,28.031,0,0,0,28-28V264h4a28.031,28.031,0,0,0,28-28V196a28.031,28.031,0,0,0-28-28h-4V144C392,69.01,330.99,8,256,8S120,69.01,120,144v24h-4a28.031,28.031,0,0,0-28,28v40a28.031,28.031,0,0,0,28,28h4a8,8,0,0,0,8,8h22.05c8.19,21.55,23.86,40.38,41.95,54.35v19.63L113.51,368.6A88.03,88.03,0,0,0,48,453.67V496a8,8,0,0,0,8,8H456a8,8,0,0,0,8-8V453.67A88.03,88.03,0,0,0,398.49,368.6ZM392,184h4a12.01,12.01,0,0,1,12,12v40a12.01,12.01,0,0,1-12,12h-4ZM120,248h-4a12.01,12.01,0,0,1-12-12V196a12.01,12.01,0,0,1,12-12h4ZM334.08,366.69,301.09,429.4l-32.33-15.84,45.91-52.46ZM256,403.85l-48-54.86V337.1c16.38,9.48,33.46,14.9,48,14.9s31.62-5.42,48-14.9v11.89ZM376,284a12.01,12.01,0,0,1-12,12H349.15a111.444,111.444,0,0,0,12.8-24H376ZM352,171.31a79.215,79.215,0,0,1-41.3-31.53,8.009,8.009,0,0,0-10.76-2.37c-.61.36-59.45,35.26-139.94,37.48V144a96,96,0,0,1,192,0ZM376,256h-8V176h8Zm-232,0h-8V176h8Zm0-112v16h-8V144a120,120,0,0,1,240,0v16h-8V144a112,112,0,0,0-224,0Zm16,96V190.89c70.26-1.8,123.83-26.71,141.78-36.2A93.971,93.971,0,0,0,352,187.94V240c0,11.76-3.28,33.27-22.93,56H296a8,8,0,0,0,0,16h16.45c-18.28,14.72-39.86,24-56.45,24-18.19,0-42.4-11.16-61.66-28.42C164.46,280.8,160,253.75,160,240Zm37.33,121.1,45.83,52.38-31.73,15.86L178.4,366.55ZM226.23,488H120V464a8,8,0,0,0-16,0v24H64V453.67a72.03,72.03,0,0,1,53.67-69.62,1.332,1.332,0,0,1,.19-.05l44.84-12.92,38.22,72.64a8.011,8.011,0,0,0,10.66,3.44l5.64-2.83,14.14,28.28Zm16.87,0,2.67-8h20.69l3,8Zm23.96-24H244.94l-13.41-26.82,24.28-12.14,24.68,12.08ZM448,488H408V464a8,8,0,0,0-16,0v24H286.54l-5.82-15.54,14.14-28.3,6.17,3.02a7.882,7.882,0,0,0,3.51.82,8,8,0,0,0,7.09-4.28l38.15-72.51L394.14,384a1.332,1.332,0,0,1,.19.05A72.03,72.03,0,0,1,448,453.67Z"/><path d="M240,296h32a8,8,0,0,0,0-16H240a8,8,0,0,0,0,16Z"/></g></svg>
