<?xml version="1.0" encoding="UTF-8"?>
<svg xmlns="http://www.w3.org/2000/svg" width="512" height="512" viewBox="0 0 512 512"><g><path d="M468,128H424V68a28.031,28.031,0,0,0-28-28H36A28.031,28.031,0,0,0,8,68V284a28.031,28.031,0,0,0,28,28H56v72a8,8,0,0,0,13.66,5.66L147.31,312H192v60a28.031,28.031,0,0,0,28,28H364.69l77.65,77.66A8,8,0,0,0,456,472V400h12a28.031,28.031,0,0,0,28-28V156A28.031,28.031,0,0,0,468,128ZM144,296a8.008,8.008,0,0,0-5.66,2.34L72,364.69V304a8,8,0,0,0-8-8H36a12.01,12.01,0,0,1-12-12V68A12.01,12.01,0,0,1,36,56H396a12.01,12.01,0,0,1,12,12V284a12.01,12.01,0,0,1-12,12Zm336,76a12.01,12.01,0,0,1-12,12H448a8,8,0,0,0-8,8v60.69l-66.34-66.35A8.008,8.008,0,0,0,368,384H220a12.01,12.01,0,0,1-12-12V312H396a28.031,28.031,0,0,0,28-28V144h44a12.01,12.01,0,0,1,12,12Z"/><path d="M48,152H384a8,8,0,0,0,0-16H48a8,8,0,0,0,0,16Z"/><path d="M48,120H384a8,8,0,0,0,0-16H48a8,8,0,0,0,0,16Z"/><path d="M48,184H384a8,8,0,0,0,0-16H48a8,8,0,0,0,0,16Z"/><path d="M48,216H384a8,8,0,0,0,0-16H48a8,8,0,0,0,0,16Z"/><path d="M231,240a8,8,0,0,0-8-8H48a8,8,0,0,0,0,16H223A8,8,0,0,0,231,240Z"/><path d="M256,232h-8a8,8,0,0,0,0,16h8a8,8,0,0,0,0-16Z"/></g></svg>
