<svg height="512" viewBox="0 0 512 512" width="512" xmlns="http://www.w3.org/2000/svg"><g><path d="m424 40h-24v-24a8 8 0 0 0 -8-8h-304a8 8 0 0 0 -8 8v448a8 8 0 0 0 8 8h24v24a8 8 0 0 0 8 8h304a8 8 0 0 0 8-8v-448a8 8 0 0 0 -8-8zm-328 416v-432h288v432zm320 32h-288v-16h264a8 8 0 0 0 8-8v-408h16z"/><path d="m184 88h112a24 24 0 0 0 0-48h-112a24 24 0 0 0 0 48zm0-32h112a8 8 0 0 1 0 16h-112a8 8 0 0 1 0-16z"/><path d="m120 184h56a8 8 0 0 0 8-8v-37.643l19.969-11.411a8 8 0 0 0 -7.938-13.892l-12.031 6.877a8 8 0 0 0 -8-7.931h-56a8 8 0 0 0 -8 8v56a8 8 0 0 0 8 8zm48-16h-40v-24a7.973 7.973 0 0 0 2.343 5.652l8 8a8 8 0 0 0 9.626 1.289l20.031-11.441zm0-40v1.072l-22.664 12.95-3.679-3.679a8 8 0 0 0 -13.657 5.657v-16z"/><path d="m216 128a8 8 0 0 0 8 8h136a8 8 0 0 0 0-16h-136a8 8 0 0 0 -8 8z"/><path d="m360 152h-136a8 8 0 0 0 0 16h136a8 8 0 0 0 0-16z"/><path d="m120 272h56a8 8 0 0 0 8-8v-56a8 8 0 0 0 -8-8h-56a8 8 0 0 0 -8 8v56a8 8 0 0 0 8 8zm8-56h40v40h-40z"/><path d="m360 208h-136a8 8 0 0 0 0 16h136a8 8 0 0 0 0-16z"/><path d="m360 240h-136a8 8 0 0 0 0 16h136a8 8 0 0 0 0-16z"/><path d="m176 360a8 8 0 0 0 8-8v-56a8 8 0 0 0 -8-8h-56a8 8 0 0 0 -8 8v56a8 8 0 0 0 8 8zm-48-56h40v40h-40z"/><path d="m360 296h-136a8 8 0 0 0 0 16h136a8 8 0 0 0 0-16z"/><path d="m360 328h-136a8 8 0 0 0 0 16h136a8 8 0 0 0 0-16z"/><path d="m312 400h-144a8 8 0 0 0 0 16h144a8 8 0 0 0 0-16z"/><path d="m272 424h-64a8 8 0 0 0 0 16h64a8 8 0 0 0 0-16z"/></g></svg>