<svg height="512" viewBox="0 0 512 512" width="512" xmlns="http://www.w3.org/2000/svg"><g><path d="m408 200a96.864 96.864 0 0 0 -13.41.95 96.01 96.01 0 0 0 -82.59-144.95 96.643 96.643 0 0 0 -15.12 1.19 120.013 120.013 0 0 0 -214.48 46.85c-.8-.03-1.6-.04-2.4-.04a72 72 0 1 0 0 144h98.41c0 .01-.01.03-.01.04-.8-.03-1.6-.04-2.4-.04a72 72 0 1 0 0 144h104v16h-24a8 8 0 0 0 -6.86 12.12l48 80a8 8 0 0 0 13.72 0l48-80a8 8 0 0 0 -6.86-12.12h-24v-16h80a96 96 0 0 0 0-192zm-328 32a56 56 0 1 1 7.92-111.44 8 8 0 0 0 9.06-6.83c7-51.16 51.3-89.73 103.02-89.73a103.854 103.854 0 0 1 86.62 46.43 8.017 8.017 0 0 0 8.36 3.39 80.014 80.014 0 0 1 87.86 115.36 119.981 119.981 0 0 0 -199.97 42.82zm257.87 192-33.87 56.45-33.87-56.45h17.87a8 8 0 0 0 8-8v-48h16v48a8 8 0 0 0 8 8zm121.94-67.05a80.017 80.017 0 0 1 -51.81 19.05h-80v-16a8 8 0 0 0 -8-8h-32a8 8 0 0 0 -8 8v16h-104a56 56 0 1 1 7.92-111.44 8 8 0 0 0 9.06-6.83c7-51.16 51.3-89.73 103.02-89.73a103.8 103.8 0 0 1 81.58 39.51c.02.02.04.05.06.07 1.74 2.21 3.41 4.49 4.98 6.85a8 8 0 0 0 8.36 3.39 80 80 0 0 1 68.83 139.13z"/><path d="m320 304h-32a8 8 0 0 0 -8 8v24a8 8 0 0 0 8 8h32a8 8 0 0 0 8-8v-24a8 8 0 0 0 -8-8zm-8 24h-16v-8h16z"/></g></svg>