<svg height="512" viewBox="0 0 512 512" width="512" xmlns="http://www.w3.org/2000/svg"><g><path d="m384 168a88 88 0 1 0 88 88 88.1 88.1 0 0 0 -88-88zm0 160a72 72 0 1 1 72-72 72.083 72.083 0 0 1 -72 72z"/><path d="m384 136a120 120 0 1 0 120 120 120.134 120.134 0 0 0 -120-120zm0 224a104 104 0 1 1 104-104 104.112 104.112 0 0 1 -104 104z"/><path d="m408 256v24a8 8 0 0 1 -8 8h-8a8 8 0 0 1 -16 0h-8a8 8 0 0 1 0-16h24v-8h-24a8 8 0 0 1 -8-8v-24a8 8 0 0 1 8-8h8a8 8 0 0 1 16 0h8a8 8 0 0 1 0 16h-24v8h24a8 8 0 0 1 8 8z"/><path d="m125.41 176.49a5.438 5.438 0 0 0 -.23-.68 47.99 47.99 0 0 0 -93.17 15.95.528.528 0 0 0 -.01.13v16.11a48 48 0 0 0 96 0v-16a47.7 47.7 0 0 0 -2.59-15.51zm-45.41-16.49a32.013 32.013 0 0 1 26.98 14.82c-22.79 9.33-46.24 10.1-58.1 9.74a32.058 32.058 0 0 1 31.12-24.56zm32 48a32 32 0 0 1 -64 0v-7.43c1.71.06 3.64.1 5.75.1 13.99 0 36.07-1.74 58.19-10.58.04.63.06 1.27.06 1.91z"/><path d="m124 256h-88a28.032 28.032 0 0 0 -28 28v76a8 8 0 0 0 8 8h128a8 8 0 0 0 8-8v-76a28.032 28.032 0 0 0 -28-28zm12 96h-16v-56a8 8 0 0 0 -16 0v56h-48v-56a8 8 0 0 0 -16 0v56h-16v-68a12.013 12.013 0 0 1 12-12h88a12.013 12.013 0 0 1 12 12z"/><path d="m221.657 162.343a8 8 0 0 0 -11.314 11.314l18.343 18.343h-60.686a8 8 0 0 0 0 16h60.686l-18.343 18.343a8 8 0 0 0 11.314 11.314l32-32a8 8 0 0 0 0-11.314z"/><path d="m248 304h-60.686l18.343-18.343a8 8 0 1 0 -11.314-11.314l-32 32a8 8 0 0 0 0 11.314l32 32a8 8 0 1 0 11.314-11.314l-18.343-18.343h60.686a8 8 0 0 0 0-16z"/></g></svg>