<?xml version="1.0" encoding="UTF-8"?>
<svg xmlns="http://www.w3.org/2000/svg" width="512" height="512" viewBox="0 0 512 512"><g><path d="M476,88H431.49A95.774,95.774,0,0,0,360,56a96.738,96.738,0,0,0-15.12,1.19A119.982,119.982,0,0,0,134.87,88H36A28.031,28.031,0,0,0,8,116V412a28.031,28.031,0,0,0,28,28H198.24l-4.8,24H160a8,8,0,0,0-8,8v16H104a8,8,0,0,0,0,16H376a8,8,0,0,0,0-16H360V472a8,8,0,0,0-8-8H318.56l-4.8-24H476a28.031,28.031,0,0,0,28-28V116A28.031,28.031,0,0,0,476,88ZM135.92,120.56a8.018,8.018,0,0,0,9.06-6.83C151.99,62.57,196.28,24,248,24a103.854,103.854,0,0,1,86.62,46.43,8.007,8.007,0,0,0,8.36,3.39A80,80,0,1,1,360,232H280V216a8,8,0,0,0-8-8H240a8,8,0,0,0-8,8v16H128a56,56,0,1,1,7.92-111.44ZM272,280h17.87L256,336.45,222.13,280H240a8,8,0,0,0,8-8V224h16v48A8,8,0,0,0,272,280Zm72,200v8H168v-8ZM209.76,464l4.8-24h82.88l4.8,24ZM488,412a12.01,12.01,0,0,1-12,12H36a12.01,12.01,0,0,1-12-12V392H488Zm0-36H24V116a12.01,12.01,0,0,1,12-12h94.41c0,.01-.01.03-.01.04-.8-.03-1.6-.04-2.4-.04a72,72,0,1,0,0,144H232v16H208a8,8,0,0,0-6.86,12.12l48,80a8,8,0,0,0,13.72,0l48-80A8,8,0,0,0,304,264H280V248h80a95.961,95.961,0,0,0,83.11-144H476a12.01,12.01,0,0,1,12,12Z"/><path d="M408,488h-8a8,8,0,0,0,0,16h8a8,8,0,0,0,0-16Z"/><path d="M240,200h32a8,8,0,0,0,8-8V168a8,8,0,0,0-8-8H240a8,8,0,0,0-8,8v24A8,8,0,0,0,240,200Zm8-24h16v8H248Z"/></g></svg>
