<?xml version="1.0" encoding="UTF-8"?>
<svg xmlns="http://www.w3.org/2000/svg" width="512" height="512" viewBox="0 0 512 512"><g><path d="M499.76,216.94,448,189.33V16a8,8,0,0,0-8-8H72a8,8,0,0,0-8,8V189.33L12.24,216.94A8.005,8.005,0,0,0,8,224V496a8,8,0,0,0,8,8H496a8,8,0,0,0,8-8V224A8.005,8.005,0,0,0,499.76,216.94ZM448,207.46,479,224l-31,16.54ZM80,24H432V249.07L256,342.93,80,249.07ZM64,207.46v33.08L33,224ZM24,488V237.33l141.47,75.46L35.96,488Zm31.86,0L179.74,320.4l72.5,38.66a7.99,7.99,0,0,0,7.52,0l72.5-38.66L456.14,488ZM488,488H476.04L346.53,312.79,488,237.33Z"/><path d="M152,160A104.118,104.118,0,0,0,256,264a8,8,0,0,0,0-16,88,88,0,1,1,88-88v16c0,3.146-4.474,24-24,24-12.035,0-15.977-26.954-16-40.007v-.006C303.994,129.115,282.463,104,256,104s-48,25.122-48,56,21.533,56,48,56c15.372,0,29.069-8.484,37.86-21.638C300.614,212.007,311.519,216,320,216c27.921,0,40-26.488,40-40V160a104,104,0,0,0-208,0Zm104,40c-17.645,0-32-17.944-32-40s14.355-40,32-40,32,17.944,32,40S273.645,200,256,200Z"/><path d="M96,48h64a8,8,0,0,0,0-16H96a8,8,0,0,0,0,16Z"/><path d="M184,48h8a8,8,0,0,0,0-16h-8a8,8,0,0,0,0,16Z"/></g></svg>
