<svg height="512" viewBox="0 0 512 512" width="512" xmlns="http://www.w3.org/2000/svg"><path d="m496 352h-97.38a24.067 24.067 0 0 0 -14.62-14.62v-41.38h88a8 8 0 0 0 8-8v-128a8 8 0 0 0 -8-8h-114.23l-6.18-18.53a8 8 0 0 0 -7.59-5.47h-64a8 8 0 0 0 -8 8v152a8 8 0 0 0 8 8h88v41.38a24.067 24.067 0 0 0 -14.62 14.62h-194.76a24.067 24.067 0 0 0 -14.62-14.62v-41.38h88a8 8 0 0 0 8-8v-128a8 8 0 0 0 -8-8h-114.23l-6.18-18.53a8 8 0 0 0 -7.59-5.47h-64a8 8 0 0 0 -8 8v152a8 8 0 0 0 8 8h88v41.38a24.067 24.067 0 0 0 -14.62 14.62h-97.38a8 8 0 0 0 0 16h97.38a23.99 23.99 0 0 0 45.24 0h194.76a23.99 23.99 0 0 0 45.24 0h97.38a8 8 0 0 0 0-16zm-448-72v-136h50.23l6.18 18.53a8 8 0 0 0 7.59 5.47h112v112zm88 88a8 8 0 1 1 8-8 8.011 8.011 0 0 1 -8 8zm152-88v-136h50.23l6.18 18.53a8 8 0 0 0 7.59 5.47h112v112zm88 88a8 8 0 1 1 8-8 8.011 8.011 0 0 1 -8 8z"/></svg>