<?xml version="1.0" encoding="UTF-8"?>
<svg xmlns="http://www.w3.org/2000/svg" width="512" height="512" viewBox="0 0 512 512"><g><path d="M280,456H232a8,8,0,0,0,0,16h48a8,8,0,0,0,0-16Z"/><path d="M488,152H392V36A28.031,28.031,0,0,0,364,8H148a28.031,28.031,0,0,0-28,28V80H24a8,8,0,0,0-8,8V200a8,8,0,0,0,8,8h96V476a28.031,28.031,0,0,0,28,28H364a28.031,28.031,0,0,0,28-28V280h96a8,8,0,0,0,8-8V160A8,8,0,0,0,488,152ZM293.75,24l-4,16h-67.5l-4-16ZM32,192V96H192v96H176a8,8,0,0,0-8,8v12.69l-18.34-18.35A8.008,8.008,0,0,0,144,192ZM376,476a12.01,12.01,0,0,1-12,12H148a12.01,12.01,0,0,1-12-12V208h4.69l29.65,29.66A8,8,0,0,0,184,232V208h16a8,8,0,0,0,8-8V88a8,8,0,0,0-8-8H136V36a12.01,12.01,0,0,1,12-12h53.75l6.49,25.94A8,8,0,0,0,216,56h80a8,8,0,0,0,7.76-6.06L310.25,24H364a12.01,12.01,0,0,1,12,12V152H328a8,8,0,0,0-8,8V272a8,8,0,0,0,8,8h16v24a8,8,0,0,0,13.66,5.66L376,291.31ZM480,264H384a8.008,8.008,0,0,0-5.66,2.34L360,284.69V272a8,8,0,0,0-8-8H336V168H480Z"/><path d="M360,424H344V377a33.033,33.033,0,0,0-33-33H280V333.25A48.086,48.086,0,0,0,312,288V256a48.206,48.206,0,0,0-.47-6.62c-.02-.18-.03-.35-.06-.53A48.08,48.08,0,0,0,264,208H248a48.051,48.051,0,0,0-48,48v32a48.086,48.086,0,0,0,32,45.25V344H201a33.033,33.033,0,0,0-33,33v47H152a8,8,0,0,0,0,16H360a8,8,0,0,0,0-16ZM216,256a32.042,32.042,0,0,1,32-32h16a32.038,32.038,0,0,1,30.26,21.62c-31.53,13.31-64.46,12.4-78.26,11.23Zm0,32V272.95c4.04.32,9.22.59,15.28.59,17.01,0,40.8-2.16,64.72-11.37V288a32.042,32.042,0,0,1-32,32H248A32.042,32.042,0,0,1,216,288Zm48,48v8H248v-8Zm64,88H312V392a8,8,0,0,0-16,0v32H216V388a8,8,0,0,0-16,0v36H184V377a17.024,17.024,0,0,1,17-17H311a17.024,17.024,0,0,1,17,17Z"/><path d="M56,128H168a8,8,0,0,0,0-16H56a8,8,0,0,0,0,16Z"/><path d="M56,152H168a8,8,0,0,0,0-16H56a8,8,0,0,0,0,16Z"/><path d="M104,160H56a8,8,0,0,0,0,16h48a8,8,0,0,0,0-16Z"/><path d="M136,176a8,8,0,0,0,0-16h-8a8,8,0,0,0,0,16Z"/><path d="M379.794,185.194A8,8,0,0,0,376,192v48a8,8,0,0,0,11.578,7.155l48-24a8,8,0,0,0,0-14.31l-48-24A8,8,0,0,0,379.794,185.194ZM392,204.944,414.111,216,392,227.056Z"/></g></svg>
