<?xml version="1.0" encoding="UTF-8"?>
<svg xmlns="http://www.w3.org/2000/svg" width="512" height="512" viewBox="0 0 512 512"><g><path d="M104,336H72a8,8,0,0,0,0,16h32a8,8,0,0,0,0-16Z"/><path d="M476,136H425.89a207.992,207.992,0,0,0-339.78,0H36A28.031,28.031,0,0,0,8,164V348a28.031,28.031,0,0,0,28,28H86.11a207.992,207.992,0,0,0,339.78,0H476a28.031,28.031,0,0,0,28-28V164A28.031,28.031,0,0,0,476,136ZM221.47,67.13c-8.98,10.71-17.07,25.75-23.91,44.74-13.22,36.72-20.79,84.8-21.5,136.13H168V164a28.031,28.031,0,0,0-28-28H106.14A191.9,191.9,0,0,1,221.47,67.13ZM100.9,152l-2.67,8H77.77l-2.67-8ZM36,360a12.01,12.01,0,0,1-12-12V164a12.01,12.01,0,0,1,12-12H58.23l6.18,18.53A8,8,0,0,0,72,176h32a8,8,0,0,0,7.59-5.47L117.77,152H140a12.01,12.01,0,0,1,12,12V348a12.01,12.01,0,0,1-12,12Zm70.14,16H140a28.031,28.031,0,0,0,28-28V264h8.06c.71,51.33,8.28,99.41,21.5,136.13,6.84,18.99,14.93,34.03,23.91,44.74A191.9,191.9,0,0,1,106.14,376ZM248,446.2c-12.68-5.57-25.47-23.94-35.38-51.49C200,359.67,192.77,313.51,192.06,264H248ZM248,248H192.06c.71-49.51,7.94-95.67,20.56-130.71,9.91-27.55,22.7-45.92,35.38-51.49Zm173.71-96H436.9l-2.67,8H413.77l-2.67-8Zm-15.85-16H372a28.031,28.031,0,0,0-28,28v84h-8.06c-.71-51.33-8.28-99.41-21.5-136.13-6.84-18.99-14.93-34.03-23.91-44.74A191.9,191.9,0,0,1,405.86,136ZM264,65.8c12.68,5.57,25.47,23.94,35.38,51.49C312,152.33,319.23,198.49,319.94,248H264Zm0,380.4V264h55.94c-.71,49.51-7.94,95.67-20.56,130.71C289.47,422.26,276.68,440.63,264,446.2Zm26.53-1.33c8.98-10.71,17.07-25.75,23.91-44.74,13.22-36.72,20.79-84.8,21.5-136.13H344v84a28.031,28.031,0,0,0,28,28h33.86A191.9,191.9,0,0,1,290.53,444.87ZM488,348a12.01,12.01,0,0,1-12,12H372a12.01,12.01,0,0,1-12-12V164a12.01,12.01,0,0,1,12-12h22.23l6.18,18.53A8,8,0,0,0,408,176h32a8,8,0,0,0,7.59-5.47L453.77,152H476a12.01,12.01,0,0,1,12,12Z"/><path d="M440,336H408a8,8,0,0,0,0,16h32a8,8,0,0,0,0-16Z"/></g></svg>
