<svg height="512" viewBox="0 0 512 512" width="512" xmlns="http://www.w3.org/2000/svg"><g><path d="m496 352h-32v-244a28.031 28.031 0 0 0 -28-28h-360a28.031 28.031 0 0 0 -28 28v244h-32a8 8 0 0 0 -8 8v44a28.031 28.031 0 0 0 28 28h440a28.031 28.031 0 0 0 28-28v-44a8 8 0 0 0 -8-8zm-432-244a12.01 12.01 0 0 1 12-12h360a12.01 12.01 0 0 1 12 12v244h-384zm236.9 260-2.67 8h-84.46l-2.67-8zm187.1 36a12.01 12.01 0 0 1 -12 12h-440a12.01 12.01 0 0 1 -12-12v-36h170.23l6.18 18.53a8 8 0 0 0 7.59 5.47h96a8 8 0 0 0 7.59-5.47l6.18-18.53h170.23z"/><path d="m136 384h-88a8 8 0 0 0 0 16h88a8 8 0 0 0 0-16z"/><path d="m168 384h-8a8 8 0 0 0 0 16h8a8 8 0 0 0 0-16z"/><path d="m432 104h-352a8 8 0 0 0 -8 8v224a8 8 0 0 0 8 8h352a8 8 0 0 0 8-8v-224a8 8 0 0 0 -8-8zm-8 224h-336v-208h336z"/><path d="m256 136a88 88 0 1 0 88 88 88.1 88.1 0 0 0 -88-88zm0 160a72 72 0 1 1 72-72 72.083 72.083 0 0 1 -72 72z"/><path d="m304 216h-57.38a24 24 0 1 0 0 16h17.38v8a8 8 0 0 0 16 0v-8h8v8a8 8 0 0 0 16 0v-8a8 8 0 0 0 0-16zm-80 16a8 8 0 1 1 8-8 8.011 8.011 0 0 1 -8 8z"/></g></svg>