<svg height="512" viewBox="0 0 512 512" width="512" xmlns="http://www.w3.org/2000/svg"><g><path d="m476 32h-440a28.031 28.031 0 0 0 -28 28v392a28.031 28.031 0 0 0 28 28h440a28.031 28.031 0 0 0 28-28v-392a28.031 28.031 0 0 0 -28-28zm12 420a12.01 12.01 0 0 1 -12 12h-440a12.01 12.01 0 0 1 -12-12v-356h464zm0-372h-464v-20a12.01 12.01 0 0 1 12-12h440a12.01 12.01 0 0 1 12 12z"/><path d="m48 72h8a8 8 0 0 0 0-16h-8a8 8 0 0 0 0 16z"/><path d="m80 72h8a8 8 0 0 0 0-16h-8a8 8 0 0 0 0 16z"/><path d="m112 72h8a8 8 0 0 0 0-16h-8a8 8 0 0 0 0 16z"/><path d="m416 208h-96a48.051 48.051 0 0 0 -48 48v8h-32v-8a48.051 48.051 0 0 0 -48-48h-96a48.051 48.051 0 0 0 -48 48v64a48.051 48.051 0 0 0 48 48h96a48.051 48.051 0 0 0 48-48v-8h32v8a48.051 48.051 0 0 0 48 48h96a48.051 48.051 0 0 0 48-48v-64a48.051 48.051 0 0 0 -48-48zm-192 112a32.036 32.036 0 0 1 -32 32h-96a32.036 32.036 0 0 1 -32-32v-64a32.036 32.036 0 0 1 32-32h96a32.036 32.036 0 0 1 32 32v8h-16.29a28.043 28.043 0 0 0 -27.71-24h-72a28.031 28.031 0 0 0 -28 28v40a28.031 28.031 0 0 0 28 28h72a28.043 28.043 0 0 0 27.71-24h16.29zm-40-8h7.3a12.014 12.014 0 0 1 -11.3 8h-72a12.01 12.01 0 0 1 -12-12v-40a12.01 12.01 0 0 1 12-12h72a12.014 12.014 0 0 1 11.3 8h-7.3a24 24 0 0 0 0 48zm0-16a8 8 0 0 1 0-16h144a8 8 0 0 1 0 16zm144-32h-7.3a12.014 12.014 0 0 1 11.3-8h72a12.01 12.01 0 0 1 12 12v40a12.01 12.01 0 0 1 -12 12h-72a12.014 12.014 0 0 1 -11.3-8h7.3a24 24 0 0 0 0-48zm120 56a32.036 32.036 0 0 1 -32 32h-96a32.036 32.036 0 0 1 -32-32v-8h16.29a28.043 28.043 0 0 0 27.71 24h72a28.031 28.031 0 0 0 28-28v-40a28.031 28.031 0 0 0 -28-28h-72a28.043 28.043 0 0 0 -27.71 24h-16.29v-8a32.036 32.036 0 0 1 32-32h96a32.036 32.036 0 0 1 32 32z"/><path d="m432 432h-80a8 8 0 0 0 0 16h80a8 8 0 0 0 0-16z"/><path d="m464 432h-8a8 8 0 0 0 0 16h8a8 8 0 0 0 0-16z"/></g></svg>