<svg height="512" viewBox="0 0 512 512" width="512" xmlns="http://www.w3.org/2000/svg"><g><path d="m476 48h-440a28.031 28.031 0 0 0 -28 28v288a28.031 28.031 0 0 0 28 28h160.9l-10.67 32h-26.23a8 8 0 0 0 -8 8v16h-48a8 8 0 0 0 0 16h304a8 8 0 0 0 0-16h-48v-16a8 8 0 0 0 -8-8h-26.23l-10.67-32h160.9a28.031 28.031 0 0 0 28-28v-288a28.031 28.031 0 0 0 -28-28zm-132 392v8h-176v-8zm-140.9-16 10.67-32h84.46l10.67 32zm284.9-60a12.01 12.01 0 0 1 -12 12h-440a12.01 12.01 0 0 1 -12-12v-20h464zm0-36h-464v-252a12.01 12.01 0 0 1 12-12h440a12.01 12.01 0 0 1 12 12z"/><path d="m120 352h-72a8 8 0 0 0 0 16h72a8 8 0 0 0 0-16z"/><path d="m152 352h-8a8 8 0 0 0 0 16h8a8 8 0 0 0 0-16z"/><path d="m240 272h32a8 8 0 0 0 8-8v-96a8 8 0 0 0 -8-8h-32a8 8 0 0 0 -8 8v96a8 8 0 0 0 8 8zm8-96h16v80h-16z"/><path d="m176 272h32a8 8 0 0 0 8-8v-64a8 8 0 0 0 -8-8h-32a8 8 0 0 0 -8 8v64a8 8 0 0 0 8 8zm8-64h16v48h-16z"/><path d="m304 272h32a8 8 0 0 0 8-8v-128a8 8 0 0 0 -8-8h-32a8 8 0 0 0 -8 8v128a8 8 0 0 0 8 8zm8-128h16v112h-16z"/><path d="m152 296h208a8 8 0 0 0 0-16h-200v-168a8 8 0 0 0 -16 0v176a8 8 0 0 0 8 8z"/></g></svg>