<svg height="512" viewBox="0 0 512 512" width="512" xmlns="http://www.w3.org/2000/svg"><g><path d="m496 352h-32v-244a28.031 28.031 0 0 0 -28-28h-360a28.031 28.031 0 0 0 -28 28v244h-32a8 8 0 0 0 -8 8v44a28.031 28.031 0 0 0 28 28h440a28.031 28.031 0 0 0 28-28v-44a8 8 0 0 0 -8-8zm-432-244a12.01 12.01 0 0 1 12-12h360a12.01 12.01 0 0 1 12 12v244h-384zm236.9 260-2.67 8h-84.46l-2.67-8zm187.1 36a12.01 12.01 0 0 1 -12 12h-440a12.01 12.01 0 0 1 -12-12v-36h170.23l6.18 18.53a8 8 0 0 0 7.59 5.47h96a8 8 0 0 0 7.59-5.47l6.18-18.53h170.23z"/><path d="m136 384h-88a8 8 0 0 0 0 16h88a8 8 0 0 0 0-16z"/><path d="m168 384h-8a8 8 0 0 0 0 16h8a8 8 0 0 0 0-16z"/><path d="m432 104h-352a8 8 0 0 0 -8 8v224a8 8 0 0 0 8 8h352a8 8 0 0 0 8-8v-224a8 8 0 0 0 -8-8zm-8 224h-336v-208h336z"/><path d="m296 280a8 8 0 0 1 -8 8h-64a8 8 0 0 1 -8-8v-112a8 8 0 0 1 8-8h64a8 8 0 0 1 0 16h-56v40h24a8 8 0 0 1 0 16h-24v40h56a8 8 0 0 1 8 8z"/><path d="m128 272a8 8 0 0 0 0 16h64a8 8 0 0 0 8-8v-56a8 8 0 0 0 -8-8h-56v-40h56a8 8 0 0 0 0-16h-64a8 8 0 0 0 -8 8v56a8 8 0 0 0 8 8h56v40z"/><path d="m320 288h64a8 8 0 0 0 8-8v-112a8 8 0 0 0 -8-8h-64a8 8 0 0 0 -8 8v112a8 8 0 0 0 8 8zm8-112h48v96h-48z"/></g></svg>