<svg height="512" viewBox="0 0 512 512" width="512" xmlns="http://www.w3.org/2000/svg"><g><path d="m496 352h-32v-244a28.031 28.031 0 0 0 -28-28h-360a28.031 28.031 0 0 0 -28 28v244h-32a8 8 0 0 0 -8 8v44a28.031 28.031 0 0 0 28 28h440a28.031 28.031 0 0 0 28-28v-44a8 8 0 0 0 -8-8zm-432-244a12.01 12.01 0 0 1 12-12h360a12.01 12.01 0 0 1 12 12v244h-384zm236.9 260-2.67 8h-84.46l-2.67-8zm187.1 36a12.01 12.01 0 0 1 -12 12h-440a12.01 12.01 0 0 1 -12-12v-36h170.23l6.18 18.53a8 8 0 0 0 7.59 5.47h96a8 8 0 0 0 7.59-5.47l6.18-18.53h170.23z"/><path d="m136 384h-88a8 8 0 0 0 0 16h88a8 8 0 0 0 0-16z"/><path d="m168 384h-8a8 8 0 0 0 0 16h8a8 8 0 0 0 0-16z"/><path d="m432 104h-352a8 8 0 0 0 -8 8v224a8 8 0 0 0 8 8h352a8 8 0 0 0 8-8v-224a8 8 0 0 0 -8-8zm-8 224h-336v-208h336z"/><path d="m256 128a96 96 0 1 0 96 96 96.115 96.115 0 0 0 -96-96zm-31.43 22.44q-2.175 3.72-4.14 8.02c-7.14 15.72-11.41 35.91-12.26 57.54h-31.77a80.185 80.185 0 0 1 48.17-65.56zm-48.17 81.56h31.77c.85 21.63 5.12 41.82 12.26 57.54q1.965 4.29 4.14 8.02a80.185 80.185 0 0 1 -48.17-65.56zm71.6 68.95c-4.64-3.44-9.19-9.66-13-18.03-6.24-13.73-10.01-31.58-10.83-50.92h23.83zm0-84.95h-23.83c.82-19.34 4.59-37.19 10.83-50.92 3.81-8.37 8.36-14.59 13-18.03zm87.6 0h-31.77c-.85-21.63-5.12-41.82-12.26-57.54q-1.965-4.29-4.14-8.02a80.185 80.185 0 0 1 48.17 65.56zm-71.6-68.95c4.64 3.44 9.19 9.66 13 18.03 6.24 13.73 10.01 31.58 10.83 50.92h-23.83zm0 153.9v-68.95h23.83c-.82 19.34-4.59 37.19-10.83 50.92-3.81 8.37-8.36 14.59-13 18.03zm23.43-3.39q2.175-3.72 4.14-8.02c7.14-15.72 11.41-35.91 12.26-57.54h31.77a80.185 80.185 0 0 1 -48.17 65.56z"/></g></svg>