<svg height="512" viewBox="0 0 512 512" width="512" xmlns="http://www.w3.org/2000/svg"><g><path d="m256 184a32 32 0 1 0 -32-32 32.036 32.036 0 0 0 32 32zm0-48a16 16 0 1 1 -16 16 16.019 16.019 0 0 1 16-16z"/><path d="m503.62 437.58-64.98-207.97a8.006 8.006 0 0 0 -7.64-5.61h-79.92c14.52-26.42 24.92-52.23 24.92-72a120 120 0 0 0 -240 0c0 19.77 10.4 45.58 24.92 72h-80.92a8.011 8.011 0 0 0 -7.65 5.65l-63.97 207.93a7.759 7.759 0 0 0 -.38 2.42v32a8 8 0 0 0 8 8h480a8 8 0 0 0 8-8v-32a7.713 7.713 0 0 0 -.38-2.42zm-351.62-285.58a104 104 0 0 1 208 0c0 23.63-18.84 63.23-54.49 114.52-19.79 28.47-39.79 53.28-49.51 65.03-9.71-11.73-29.65-36.48-49.43-64.92-35.7-51.34-54.57-90.98-54.57-114.63zm-66.09 88h84.23c23.41 38.87 52.97 76.64 68.77 96h-150.91a8 8 0 0 0 0 16h304a8 8 0 0 0 0-16h-118.91c15.8-19.36 45.36-57.13 68.77-96h83.26l60 192h-458.29zm402.09 224h-464v-16h464z"/><path d="m416 352h8a8 8 0 0 0 0-16h-8a8 8 0 0 0 0 16z"/></g></svg>