<?xml version="1.0" encoding="UTF-8"?>
<svg xmlns="http://www.w3.org/2000/svg" width="512" height="512" viewBox="0 0 512 512"><g><path d="M476,88H416V16a8.007,8.007,0,0,0-9.99-7.75l-160,41A8.013,8.013,0,0,0,240,57v7H136a8,8,0,0,0-8,8v8H104a8,8,0,0,0-8,8H36A28.031,28.031,0,0,0,8,116V412a28.031,28.031,0,0,0,28,28H198.24l-4.8,24H160a8,8,0,0,0-8,8v16H104a8,8,0,0,0,0,16H376a8,8,0,0,0,0-16H360V472a8,8,0,0,0-8-8H318.56l-4.8-24H476a28.031,28.031,0,0,0,28-28V116A28.031,28.031,0,0,0,476,88ZM256,63.21l144-36.9V230.69l-144-36.9ZM144,80h96v96H144Zm38.42,168-12.45-56h15.61l12.45,56Zm35.81,16,2.67,8H176v-8ZM112,96h16v64H112ZM344,480v8H168v-8ZM209.76,464l4.8-24h82.88l4.8,24ZM488,412a12.01,12.01,0,0,1-12,12H36a12.01,12.01,0,0,1-12-12V392H488Zm0-36H24V116a12.01,12.01,0,0,1,12-12H96v64a8,8,0,0,0,8,8h24v8a8,8,0,0,0,8,8h17.58l12.5,56.24A7.992,7.992,0,0,0,160,256v24a8,8,0,0,0,8,8h64a8,8,0,0,0,7.59-10.53l-8-24A8,8,0,0,0,224,248h-9.58l-12.45-56H240v8a8.013,8.013,0,0,0,6.01,7.75l160,41A8.007,8.007,0,0,0,416,241V104h60a12.01,12.01,0,0,1,12,12Z"/><path d="M408,488h-8a8,8,0,0,0,0,16h8a8,8,0,0,0,0-16Z"/><path d="M376,144a8,8,0,0,0,8-8V56a8,8,0,0,0-16,0v80A8,8,0,0,0,376,144Z"/><path d="M376,176a8,8,0,0,0,8-8v-8a8,8,0,0,0-16,0v8A8,8,0,0,0,376,176Z"/><path d="M160,136h64a8,8,0,0,0,0-16H160a8,8,0,0,0,0,16Z"/><path d="M160,112h64a8,8,0,0,0,0-16H160a8,8,0,0,0,0,16Z"/><path d="M160,160h64a8,8,0,0,0,0-16H160a8,8,0,0,0,0,16Z"/><path d="M128,344h48a8,8,0,0,0,8-8V312a8,8,0,0,0-8-8H128a8,8,0,0,0-8,8v24A8,8,0,0,0,128,344Zm8-24h32v8H136Z"/><path d="M200,320H384a8,8,0,0,0,0-16H200a8,8,0,0,0,0,16Z"/><path d="M200,344H304a8,8,0,0,0,0-16H200a8,8,0,0,0,0,16Z"/><path d="M336,328h-8a8,8,0,0,0,0,16h8a8,8,0,0,0,0-16Z"/></g></svg>
