<?xml version="1.0" encoding="UTF-8"?>
<svg xmlns="http://www.w3.org/2000/svg" width="512" height="512" viewBox="0 0 512 512"><g><path d="M476,32H36A28.031,28.031,0,0,0,8,60V452a28.031,28.031,0,0,0,28,28H476a28.031,28.031,0,0,0,28-28V60A28.031,28.031,0,0,0,476,32Zm12,420a12.01,12.01,0,0,1-12,12H36a12.01,12.01,0,0,1-12-12V96H488Zm0-372H24V60A12.01,12.01,0,0,1,36,48H476a12.01,12.01,0,0,1,12,12Z"/><path d="M48,72h8a8,8,0,0,0,0-16H48a8,8,0,0,0,0,16Z"/><path d="M80,72h8a8,8,0,0,0,0-16H80a8,8,0,0,0,0,16Z"/><path d="M112,72h8a8,8,0,0,0,0-16h-8a8,8,0,0,0,0,16Z"/><path d="M432,244V200a7.9,7.9,0,0,0-.85-3.57l.01-.01-32-64A8.011,8.011,0,0,0,392,128H120a8.011,8.011,0,0,0-7.16,4.42l-32,64,.01.01A7.9,7.9,0,0,0,80,200v44a28.043,28.043,0,0,0,24,27.71V416H56a8,8,0,0,0,0,16H424a8,8,0,0,0,0-16H408V271.71A28.043,28.043,0,0,0,432,244ZM124.94,144H387.06l24,48H100.94ZM368,208v36a12.01,12.01,0,0,1-12,12h-8a12.01,12.01,0,0,1-12-12V208Zm-48,0v36a12.01,12.01,0,0,1-12,12h-8a12.01,12.01,0,0,1-12-12V208Zm-48,0v36a12.01,12.01,0,0,1-12,12h-8a12.01,12.01,0,0,1-12-12V208Zm-48,0v36a12.01,12.01,0,0,1-12,12h-8a12.01,12.01,0,0,1-12-12V208Zm-48,0v36a12.01,12.01,0,0,1-12,12h-8a12.01,12.01,0,0,1-12-12V208Zm-68,48a12.01,12.01,0,0,1-12-12V208h32v36a12.01,12.01,0,0,1-12,12ZM216,416H152V312h64Zm176,0H232V304a8,8,0,0,0-8-8H144a8,8,0,0,0-8,8V416H120V271.71a27.986,27.986,0,0,0,16-8.14A27.9,27.9,0,0,0,156,272h8a27.9,27.9,0,0,0,20-8.43A27.9,27.9,0,0,0,204,272h8a27.9,27.9,0,0,0,20-8.43A27.9,27.9,0,0,0,252,272h8a27.9,27.9,0,0,0,20-8.43A27.9,27.9,0,0,0,300,272h8a27.9,27.9,0,0,0,20-8.43A27.9,27.9,0,0,0,348,272h8a27.9,27.9,0,0,0,20-8.43,27.986,27.986,0,0,0,16,8.14Zm12-160h-8a12.01,12.01,0,0,1-12-12V208h32v36A12.01,12.01,0,0,1,404,256Z"/><path d="M368,296H256a8,8,0,0,0-8,8v88a8,8,0,0,0,8,8H368a8,8,0,0,0,8-8V304A8,8,0,0,0,368,296Zm-8,88H264V312h96Z"/><path d="M200,352a8,8,0,0,0-8,8v16a8,8,0,0,0,16,0V360A8,8,0,0,0,200,352Z"/><path d="M456,416h-8a8,8,0,0,0,0,16h8a8,8,0,0,0,0-16Z"/></g></svg>
