<?xml version="1.0" encoding="UTF-8"?>
<svg xmlns="http://www.w3.org/2000/svg" width="512" height="512" viewBox="0 0 512 512"><g><path d="M256,456a8,8,0,0,0,0,16h64a8,8,0,0,0,0-16Z"/><path d="M344,472h8a8,8,0,0,0,0-16h-8a8,8,0,0,0,0,16Z"/><path d="M455.98,303.5l-8-128A8,8,0,0,0,440,168H416V152a32.058,32.058,0,0,0-24-30.99V36A28.031,28.031,0,0,0,364,8H148a28.031,28.031,0,0,0-28,28V208.29A27.985,27.985,0,0,0,90.71,248H64a8,8,0,0,0-8,8v32a8,8,0,0,0,8,8v72a8,8,0,0,0,8,8h48V476a28.031,28.031,0,0,0,28,28H364a28.031,28.031,0,0,0,28-28V312h56a7.99,7.99,0,0,0,7.98-8.5ZM384,136a16.021,16.021,0,0,1,16,16v16H368V152A16.021,16.021,0,0,1,384,136ZM293.75,24l-4,16h-67.5l-4-16ZM72,264h32v16H72Zm40,96H80V296h32Zm4-112a12,12,0,1,1,12-12v12Zm4,16h32v16H120Zm48,16V264h32v16Zm24,16v64H160V296Zm-36-48H144V236a12,12,0,1,1,12,12ZM128,360V296h16v64ZM376,476a12.01,12.01,0,0,1-12,12H148a12.01,12.01,0,0,1-12-12V376h64a8,8,0,0,0,8-8V296a8,8,0,0,0,8-8V256a8,8,0,0,0-8-8H181.29A27.75,27.75,0,0,0,184,236a27.982,27.982,0,0,0-48-19.57l-.02-.02c.01-.14.02-.27.02-.41V36a12.01,12.01,0,0,1,12-12h53.75l6.49,25.94A8,8,0,0,0,216,56h80a8,8,0,0,0,7.76-6.06L310.25,24H364a12.01,12.01,0,0,1,12,12v85.01A32.058,32.058,0,0,0,352,152v16H328a8,8,0,0,0-7.98,7.5l-8,128A7.99,7.99,0,0,0,320,312h56ZM328.52,296l7-112h96.96l7,112Z"/><path d="M402.343,210.343l-40,40a8,8,0,0,0,11.314,11.314l40-40a8,8,0,0,0-11.314-11.314Z"/><circle cx="368" cy="216" r="8"/><circle cx="408" cy="256" r="8"/></g></svg>
