<svg height="512" viewBox="0 0 512 512" width="512" xmlns="http://www.w3.org/2000/svg"><g><path d="m304 360v-16a47.757 47.757 0 0 0 -2.586-15.509c-.067-.23-.143-.458-.232-.684a47.994 47.994 0 0 0 -93.176 15.95v.13.113 16a48 48 0 0 0 96 0zm-48-48a31.994 31.994 0 0 1 26.975 14.819c-22.786 9.331-46.235 10.1-58.092 9.739a32.051 32.051 0 0 1 31.117-24.558zm32 48a32 32 0 0 1 -64 0v-7.427c1.715.061 3.639.1 5.75.1 13.988 0 36.072-1.748 58.188-10.589.037.634.062 1.272.062 1.915z"/><path d="m300 408h-88a28.032 28.032 0 0 0 -28 28v60a8 8 0 0 0 8 8h128a8 8 0 0 0 8-8v-60a28.032 28.032 0 0 0 -28-28zm12 80h-8v-40a8 8 0 0 0 -16 0v40h-64v-40a8 8 0 0 0 -16 0v40h-8v-52a12.013 12.013 0 0 1 12-12h88a12.013 12.013 0 0 1 12 12z"/><path d="m128 360v-16a47.757 47.757 0 0 0 -2.586-15.509c-.067-.23-.143-.458-.232-.684a47.994 47.994 0 0 0 -93.176 15.95v.13.113 16a48 48 0 0 0 96 0zm-48-48a31.994 31.994 0 0 1 26.975 14.819c-22.786 9.331-46.235 10.1-58.092 9.739a32.051 32.051 0 0 1 31.117-24.558zm32 48a32 32 0 0 1 -64 0v-7.427c1.715.061 3.639.1 5.75.1 13.988 0 36.072-1.748 58.188-10.589.037.634.062 1.272.062 1.915z"/><path d="m124 408h-88a28.032 28.032 0 0 0 -28 28v60a8 8 0 0 0 8 8h128a8 8 0 0 0 8-8v-60a28.032 28.032 0 0 0 -28-28zm12 80h-8v-40a8 8 0 0 0 -16 0v40h-64v-40a8 8 0 0 0 -16 0v40h-8v-52a12.013 12.013 0 0 1 12-12h88a12.013 12.013 0 0 1 12 12z"/><path d="m480 360v-16a47.757 47.757 0 0 0 -2.586-15.509c-.067-.23-.143-.458-.232-.684a47.994 47.994 0 0 0 -93.176 15.95v.13.113 16a48 48 0 0 0 96 0zm-48-48a31.994 31.994 0 0 1 26.975 14.819c-22.786 9.331-46.235 10.1-58.092 9.739a32.051 32.051 0 0 1 31.117-24.558zm32 48a32 32 0 0 1 -64 0v-7.427c1.715.061 3.639.1 5.75.1 13.988 0 36.072-1.748 58.188-10.589.037.634.062 1.272.062 1.915z"/><path d="m476 408h-88a28.032 28.032 0 0 0 -28 28v60a8 8 0 0 0 8 8h128a8 8 0 0 0 8-8v-60a28.032 28.032 0 0 0 -28-28zm12 80h-8v-40a8 8 0 0 0 -16 0v40h-64v-40a8 8 0 0 0 -16 0v40h-8v-52a12.013 12.013 0 0 1 12-12h88a12.013 12.013 0 0 1 12 12z"/><path d="m432 240h-168v-16h72a8 8 0 0 0 8-8v-39a33.033 33.033 0 0 0 -33-33h-31v-10.75a48.086 48.086 0 0 0 32-45.25v-32a48.094 48.094 0 0 0 -.47-6.62c-.02-.18-.04-.35-.06-.53a48.08 48.08 0 0 0 -47.47-40.85h-16a48.051 48.051 0 0 0 -48 48v32a48.086 48.086 0 0 0 32 45.25v10.75h-31a33.033 33.033 0 0 0 -33 33v39a8 8 0 0 0 8 8h72v16h-168a8 8 0 0 0 -8 8v32a8 8 0 0 0 16 0v-24h160v24a8 8 0 0 0 16 0v-24h160v24a8 8 0 0 0 16 0v-32a8 8 0 0 0 -8-8zm-216-184a32.036 32.036 0 0 1 32-32h16a32.038 32.038 0 0 1 30.26 21.62c-31.53 13.31-64.46 12.41-78.26 11.24zm0 32v-15.05c4.04.32 9.22.59 15.28.59 17.01 0 40.8-2.16 64.72-11.37v25.83a32.036 32.036 0 0 1 -32 32h-16a32.036 32.036 0 0 1 -32-32zm48 48v8h-16v-8zm-48 72v-20a8 8 0 0 0 -16 0v20h-16v-31a17.024 17.024 0 0 1 17-17h110a17.024 17.024 0 0 1 17 17v31h-16v-16a8 8 0 0 0 -16 0v16z"/></g></svg>