<svg height="512" viewBox="0 0 512 512" width="512" xmlns="http://www.w3.org/2000/svg"><g><path d="m476 64h-141.7a111.8 111.8 0 0 0 -156.6 0h-141.7a28.031 28.031 0 0 0 -28 28v288a28.031 28.031 0 0 0 28 28h160.9l-10.67 32h-26.23a8 8 0 0 0 -8 8v16h-48a8 8 0 0 0 0 16h304a8 8 0 0 0 0-16h-48v-16a8 8 0 0 0 -8-8h-26.23l-10.67-32h160.9a28.031 28.031 0 0 0 28-28v-288a28.031 28.031 0 0 0 -28-28zm-220-16a96 96 0 1 1 -96 96 96.115 96.115 0 0 1 96-96zm88 408v8h-176v-8zm-140.9-16 10.67-32h84.46l10.67 32zm284.9-60a12.01 12.01 0 0 1 -12 12h-440a12.01 12.01 0 0 1 -12-12v-20h464zm0-36h-464v-252a12.01 12.01 0 0 1 12-12h128.14a111.936 111.936 0 0 0 83.86 175.71v24.29a8 8 0 0 0 16 0v-24.29a111.936 111.936 0 0 0 83.86-175.71h128.14a12.01 12.01 0 0 1 12 12z"/><path d="m120 368h-72a8 8 0 0 0 0 16h72a8 8 0 0 0 0-16z"/><path d="m152 368h-8a8 8 0 0 0 0 16h8a8 8 0 0 0 0-16z"/><path d="m256 56a88 88 0 1 0 88 88 88.1 88.1 0 0 0 -88-88zm0 160a72 72 0 1 1 72-72 72.083 72.083 0 0 1 -72 72z"/><path d="m280 144v24a8 8 0 0 1 -8 8h-8a8 8 0 0 1 -16 0h-8a8 8 0 0 1 0-16h24v-8h-24a8 8 0 0 1 -8-8v-24a8 8 0 0 1 8-8h8a8 8 0 0 1 16 0h8a8 8 0 0 1 0 16h-24v8h24a8 8 0 0 1 8 8z"/><path d="m184 328h144a8 8 0 0 0 0-16h-144a8 8 0 0 0 0 16z"/><path d="m280 304a8 8 0 0 0 8-8v-32a8 8 0 0 0 -16 0v32a8 8 0 0 0 8 8z"/><path d="m232 296a8 8 0 0 0 8-8v-16a8 8 0 0 0 -16 0v16a8 8 0 0 0 8 8z"/></g></svg>