<svg height="512" viewBox="0 0 512 512" width="512" xmlns="http://www.w3.org/2000/svg"><g><path d="m360 448a8 8 0 0 0 8-8v-72a8 8 0 0 0 -16 0v72a8 8 0 0 0 8 8z"/><path d="m360 480a8 8 0 0 0 8-8v-8a8 8 0 0 0 -16 0v8a8 8 0 0 0 8 8z"/><path d="m464 96h-72v-60a28.031 28.031 0 0 0 -28-28h-216a28.031 28.031 0 0 0 -28 28v60h-72a8 8 0 0 0 -8 8v144a8 8 0 0 0 8 8h72v220a28.031 28.031 0 0 0 28 28h216a28.031 28.031 0 0 0 28-28v-220h72a8 8 0 0 0 8-8v-144a8 8 0 0 0 -8-8zm-170.25-72-4 16h-67.5l-4-16zm-157.75 12a12.01 12.01 0 0 1 12-12h53.75l6.49 25.94a8 8 0 0 0 7.76 6.06h80a8 8 0 0 0 7.76-6.06l6.49-25.94h53.75a12.01 12.01 0 0 1 12 12v60h-240zm240 440a12.01 12.01 0 0 1 -12 12h-216a12.01 12.01 0 0 1 -12-12v-220h91.06l21.78 43.58a8.009 8.009 0 0 0 14.32 0l21.78-43.58h91.06zm80-236h-176a8.011 8.011 0 0 0 -7.16 4.42l-16.84 33.69-16.84-33.69a8.011 8.011 0 0 0 -7.16-4.42h-176v-128h400z"/><path d="m344 136v80a8 8 0 0 0 8 8h80a8 8 0 0 0 8-8v-80a8 8 0 0 0 -8-8h-80a8 8 0 0 0 -8 8zm16 8h64v64h-64z"/><path d="m320 128h-240a8 8 0 0 0 0 16h240a8 8 0 0 0 0-16z"/><path d="m320 168h-240a8 8 0 0 0 0 16h240a8 8 0 0 0 0-16z"/><path d="m320 208h-240a8 8 0 0 0 0 16h240a8 8 0 0 0 0-16z"/><path d="m200 320v48a8 8 0 0 0 8 8h96a8 8 0 0 0 8-8v-48a8 8 0 0 0 -8-8h-96a8 8 0 0 0 -8 8zm16 8h80v32h-80z"/><circle cx="256" cy="344" r="8"/><circle cx="232" cy="344" r="8"/><circle cx="280" cy="344" r="8"/></g></svg>