<svg height="512" viewBox="0 0 512 512" width="512" xmlns="http://www.w3.org/2000/svg"><g><path d="m344 128a88 88 0 1 0 -88 88 88.1 88.1 0 0 0 88-88zm-160 0a72 72 0 1 1 72 72 72.081 72.081 0 0 1 -72-72z"/><path d="m264 160h8a8 8 0 0 0 8-8v-24a8 8 0 0 0 -8-8h-24v-8h24a8 8 0 0 0 0-16h-8a8 8 0 0 0 -16 0h-8a8 8 0 0 0 -8 8v24a8 8 0 0 0 8 8h24v8h-24a8 8 0 0 0 0 16h8a8 8 0 0 0 16 0z"/><path d="m496 456h-32v-200a8 8 0 0 0 -8-8h-96a8 8 0 0 0 -8 8v200h-40v-221.9a120 120 0 1 0 -112 0v221.9h-40v-120a8 8 0 0 0 -8-8h-96a8 8 0 0 0 -8 8v120h-32a8 8 0 0 0 -8 8v32a8 8 0 0 0 8 8h480a8 8 0 0 0 8-8v-32a8 8 0 0 0 -8-8zm-128-192h80v192h-80zm-216-136a104 104 0 1 1 104 104 104.112 104.112 0 0 1 -104-104zm144 113.14v214.86h-80v-214.86a120.048 120.048 0 0 0 80 0zm-232 102.86h80v112h-80zm424 144h-464v-16h464z"/></g></svg>