<svg height="512" viewBox="0 0 512 512" width="512" xmlns="http://www.w3.org/2000/svg"><g><path d="m424 24h-80v-8a8 8 0 0 0 -8-8h-160a8 8 0 0 0 -8 8v8h-80a8 8 0 0 0 -8 8v464a8 8 0 0 0 8 8h336a8 8 0 0 0 8-8v-464a8 8 0 0 0 -8-8zm-240 0h144v20a12.01 12.01 0 0 1 -12 12h-120a12.01 12.01 0 0 1 -12-12zm-56 16h40v4a28.031 28.031 0 0 0 28 28h120a28.031 28.031 0 0 0 28-28v-4h40v416h-256zm288 448h-320v-448h16v424a8 8 0 0 0 8 8h272a8 8 0 0 0 8-8v-424h16z"/><path d="m240 280h32a8 8 0 0 0 8-8v-96a8 8 0 0 0 -8-8h-32a8 8 0 0 0 -8 8v96a8 8 0 0 0 8 8zm8-96h16v80h-16z"/><path d="m176 280h32a8 8 0 0 0 8-8v-64a8 8 0 0 0 -8-8h-32a8 8 0 0 0 -8 8v64a8 8 0 0 0 8 8zm8-64h16v48h-16z"/><path d="m304 280h32a8 8 0 0 0 8-8v-128a8 8 0 0 0 -8-8h-32a8 8 0 0 0 -8 8v128a8 8 0 0 0 8 8zm8-128h16v112h-16z"/><path d="m152 304h208a8 8 0 0 0 0-16h-200v-168a8 8 0 0 0 -16 0v176a8 8 0 0 0 8 8z"/><path d="m152 368h48a8 8 0 0 0 8-8v-24a8 8 0 0 0 -8-8h-48a8 8 0 0 0 -8 8v24a8 8 0 0 0 8 8zm8-24h32v8h-32z"/><path d="m360 328h-136a8 8 0 0 0 0 16h136a8 8 0 0 0 0-16z"/><path d="m224 368h48a8 8 0 0 0 0-16h-48a8 8 0 0 0 0 16z"/><path d="m304 368a8 8 0 0 0 0-16h-8a8 8 0 0 0 0 16z"/><path d="m152 424h48a8 8 0 0 0 8-8v-24a8 8 0 0 0 -8-8h-48a8 8 0 0 0 -8 8v24a8 8 0 0 0 8 8zm8-24h32v8h-32z"/><path d="m360 384h-136a8 8 0 0 0 0 16h136a8 8 0 0 0 0-16z"/><path d="m272 408h-48a8 8 0 0 0 0 16h48a8 8 0 0 0 0-16z"/><path d="m304 408h-8a8 8 0 0 0 0 16h8a8 8 0 0 0 0-16z"/></g></svg>