<svg height="512" viewBox="0 0 512 512" width="512" xmlns="http://www.w3.org/2000/svg"><g><path d="m244.569 75.1a119.778 119.778 0 1 0 0 169.469 119.969 119.969 0 0 0 0-169.469zm-158.157 158.155a103.834 103.834 0 1 1 146.843 0 103.953 103.953 0 0 1 -146.843 0z"/><path d="m92.068 92.069a96.24 96.24 0 0 0 -19.338 107.785 8 8 0 1 0 14.54-6.679 80.173 80.173 0 0 1 16.113-89.793 8 8 0 0 0 -11.315-11.313z"/><path d="m98.442 210.877a8 8 0 0 0 -12.289 10.247c1.861 2.23 3.851 4.409 5.915 6.474a8 8 0 0 0 11.315-11.314c-1.726-1.725-3.383-3.544-4.941-5.407z"/><path d="m501.93 434.05-183.7-183.71a8.015 8.015 0 0 0 -11.32 0l-5.66 5.66-13.69-13.69a152.024 152.024 0 0 0 -235.21-189.96c-59.26 59.27-59.26 155.7 0 214.96a152.118 152.118 0 0 0 189.96 20.25l13.69 13.69-5.66 5.66a8.015 8.015 0 0 0 0 11.32l183.71 183.7a8 8 0 0 0 11.31 0l56.57-56.57a7.985 7.985 0 0 0 0-11.31zm-245.94-178.04a136 136 0 1 1 -192.32-192.34 136 136 0 0 1 192.34 192.32zm11.29 11.33.03-.03.03-.03 11.29-11.28 11.31 11.31-22.63 22.63-11.31-11.31zm172.43 217.62-172.4-172.39 5.66-5.65v-.01l33.94-33.94h.01l5.65-5.66 172.39 172.4z"/></g></svg>