<svg height="512" viewBox="0 0 512 512" width="512" xmlns="http://www.w3.org/2000/svg"><g><path d="m476 32h-440a28.031 28.031 0 0 0 -28 28v392a28.031 28.031 0 0 0 28 28h440a28.031 28.031 0 0 0 28-28v-392a28.031 28.031 0 0 0 -28-28zm12 420a12.01 12.01 0 0 1 -12 12h-440a12.01 12.01 0 0 1 -12-12v-356h464zm0-372h-464v-20a12.01 12.01 0 0 1 12-12h440a12.01 12.01 0 0 1 12 12z"/><path d="m48 72h8a8 8 0 0 0 0-16h-8a8 8 0 0 0 0 16z"/><path d="m80 72h8a8 8 0 0 0 0-16h-8a8 8 0 0 0 0 16z"/><path d="m112 72h8a8 8 0 0 0 0-16h-8a8 8 0 0 0 0 16z"/><path d="m48 128h88a8 8 0 0 0 0-16h-88a8 8 0 0 0 0 16z"/><path d="m64 136h-16a8 8 0 0 0 0 16h16a8 8 0 0 0 0-16z"/><path d="m96 136h-8a8 8 0 0 0 0 16h8a8 8 0 0 0 0-16z"/><path d="m275.657 212.833a71.967 71.967 0 1 0 0 101.824 72.084 72.084 0 0 0 0-101.824zm-11.314 90.51a55.974 55.974 0 1 1 0-79.2 56.061 56.061 0 0 1 0 79.2z"/><path d="m400.11 405.17-86.82-86.82a103.943 103.943 0 1 0 -33.94 33.94l86.82 86.82a8 8 0 0 0 11.31 0l22.63-22.63a8 8 0 0 0 0-11.31zm-175.36-53.42a88.018 88.018 0 1 1 62.22-25.78 87.435 87.435 0 0 1 -62.22 25.78zm147.07 70.39-79.19-79.2 11.31-11.31 79.2 79.19z"/></g></svg>