<?xml version="1.0" encoding="UTF-8"?>
<svg xmlns="http://www.w3.org/2000/svg" width="512" height="512" viewBox="0 0 512 512"><g><path d="M476,264H372a28.031,28.031,0,0,0-28,28V476a28.031,28.031,0,0,0,28,28H476a28.031,28.031,0,0,0,28-28V292A28.031,28.031,0,0,0,476,264Zm-39.1,16-2.67,8H413.77l-2.67-8ZM488,476a12.01,12.01,0,0,1-12,12H372a12.01,12.01,0,0,1-12-12V292a12.01,12.01,0,0,1,12-12h22.23l6.18,18.53A8,8,0,0,0,408,304h32a8,8,0,0,0,7.59-5.47L453.77,280H476a12.01,12.01,0,0,1,12,12Z"/><path d="M440,464H408a8,8,0,0,0,0,16h32a8,8,0,0,0,0-16Z"/><path d="M140,264H36A28.031,28.031,0,0,0,8,292V476a28.031,28.031,0,0,0,28,28H140a28.031,28.031,0,0,0,28-28V292A28.031,28.031,0,0,0,140,264Zm-39.1,16-2.67,8H77.77l-2.67-8ZM152,476a12.01,12.01,0,0,1-12,12H36a12.01,12.01,0,0,1-12-12V292a12.01,12.01,0,0,1,12-12H58.23l6.18,18.53A8,8,0,0,0,72,304h32a8,8,0,0,0,7.59-5.47L117.77,280H140a12.01,12.01,0,0,1,12,12Z"/><path d="M104,464H72a8,8,0,0,0,0,16h32a8,8,0,0,0,0-16Z"/><path d="M424,224H264V208h56a8,8,0,0,0,8-8V176a8,8,0,0,0-8-8H294.25l-4-16H332a28.031,28.031,0,0,0,28-28V36A28.031,28.031,0,0,0,332,8H180a28.031,28.031,0,0,0-28,28v88a28.031,28.031,0,0,0,28,28h41.75l-4,16H192a8,8,0,0,0-8,8v24a8,8,0,0,0,8,8h56v16H88a8,8,0,0,0-8,8v16a8,8,0,0,0,16,0v-8H416v8a8,8,0,0,0,16,0V232A8,8,0,0,0,424,224ZM168,36a12.01,12.01,0,0,1,12-12H332a12.01,12.01,0,0,1,12,12v76H168Zm12,100a12.014,12.014,0,0,1-11.3-8H343.3a12.014,12.014,0,0,1-11.3,8Zm97.75,32h-43.5l4-16h35.5ZM200,192v-8H312v8Z"/></g></svg>
