<svg height="512" viewBox="0 0 512 512" width="512" xmlns="http://www.w3.org/2000/svg"><g><path d="m120 208a32 32 0 1 0 -32 32 32.036 32.036 0 0 0 32-32zm-48 0a16 16 0 1 1 16 16 16.019 16.019 0 0 1 -16-16z"/><path d="m160 240a32 32 0 1 0 -32-32 32.036 32.036 0 0 0 32 32zm0-48a16 16 0 1 1 -16 16 16.019 16.019 0 0 1 16-16z"/><path d="m232 240a32 32 0 1 0 -32-32 32.036 32.036 0 0 0 32 32zm0-48a16 16 0 1 1 -16 16 16.019 16.019 0 0 1 16-16z"/><path d="m120 72a32 32 0 1 0 -32 32 32.036 32.036 0 0 0 32-32zm-48 0a16 16 0 1 1 16 16 16.019 16.019 0 0 1 -16-16z"/><path d="m160 104a32 32 0 1 0 -32-32 32.036 32.036 0 0 0 32 32zm0-48a16 16 0 1 1 -16 16 16.019 16.019 0 0 1 16-16z"/><path d="m232 104a32 32 0 1 0 -32-32 32.036 32.036 0 0 0 32 32zm0-48a16 16 0 1 1 -16 16 16.019 16.019 0 0 1 16-16z"/><path d="m88 312a32 32 0 1 0 32 32 32.036 32.036 0 0 0 -32-32zm0 48a16 16 0 1 1 16-16 16.019 16.019 0 0 1 -16 16z"/><path d="m160 312a32 32 0 1 0 32 32 32.036 32.036 0 0 0 -32-32zm0 48a16 16 0 1 1 16-16 16.019 16.019 0 0 1 -16 16z"/><path d="m264 344a32 32 0 1 0 -32 32 32.036 32.036 0 0 0 32-32zm-48 0a16 16 0 1 1 16 16 16.019 16.019 0 0 1 -16-16z"/><path d="m496 472h-216v-8a8 8 0 0 0 -8-8h-8v-24h16a8 8 0 0 0 8-8v-16h172a28.031 28.031 0 0 0 28-28v-72a28.031 28.031 0 0 0 -28-28h-20v-8h20a28.031 28.031 0 0 0 28-28v-72a28.031 28.031 0 0 0 -28-28h-20v-8h20a28.031 28.031 0 0 0 28-28v-72a28.031 28.031 0 0 0 -28-28h-408a28.031 28.031 0 0 0 -28 28v72a28.031 28.031 0 0 0 28 28h20v8h-20a28.031 28.031 0 0 0 -28 28v72a28.031 28.031 0 0 0 28 28h20v8h-20a28.031 28.031 0 0 0 -28 28v72a28.031 28.031 0 0 0 28 28h172v16a8 8 0 0 0 8 8h16v24h-8a8 8 0 0 0 -8 8v8h-216a8 8 0 0 0 0 16h216v8a8 8 0 0 0 8 8h32a8 8 0 0 0 8-8v-8h216a8 8 0 0 0 0-16zm-48-176h12a12.01 12.01 0 0 1 12 12v72a12.01 12.01 0 0 1 -12 12h-12zm0-136h12a12.01 12.01 0 0 1 12 12v72a12.01 12.01 0 0 1 -12 12h-12zm0-136h12a12.01 12.01 0 0 1 12 12v72a12.01 12.01 0 0 1 -12 12h-12zm-72 368h-16v-96h16zm24 0h-8v-96h8zm-312-112v-8h336v8zm272-24v-96h16v96zm32 0v-96h8v96zm40 136h-16v-96h16zm0-136h-16v-96h16zm-16-232h16v96h-16zm-24 0h8v96h-8zm-32 0h16v96h-16zm64 112v8h-336v-8zm-372-16a12.01 12.01 0 0 1 -12-12v-72a12.01 12.01 0 0 1 12-12h292v96zm0 136a12.01 12.01 0 0 1 -12-12v-72a12.01 12.01 0 0 1 12-12h292v96zm0 136a12.01 12.01 0 0 1 -12-12v-72a12.01 12.01 0 0 1 12-12h292v96zm188 24v-8h32v8zm24 72h-16v-16h16z"/></g></svg>