<svg height="512" viewBox="0 0 512 512" width="512" xmlns="http://www.w3.org/2000/svg"><g><path d="m476 32h-440a28.032 28.032 0 0 0 -28 28v392a28.032 28.032 0 0 0 28 28h440a28.032 28.032 0 0 0 28-28v-392a28.032 28.032 0 0 0 -28-28zm-440 16h440a12.013 12.013 0 0 1 12 12v20h-464v-20a12.013 12.013 0 0 1 12-12zm440 416h-440a12.013 12.013 0 0 1 -12-12v-356h464v356a12.013 12.013 0 0 1 -12 12z"/><path d="m48 72h8a8 8 0 0 0 0-16h-8a8 8 0 0 0 0 16z"/><path d="m80 72h8a8 8 0 0 0 0-16h-8a8 8 0 0 0 0 16z"/><path d="m112 72h8a8 8 0 0 0 0-16h-8a8 8 0 0 0 0 16z"/><path d="m272 176h-8v-24a8 8 0 0 0 -16 0v24h-8a8 8 0 0 0 -8 8v48a8 8 0 0 0 8 8h8v168a8 8 0 0 0 16 0v-168h8a8 8 0 0 0 8-8v-48a8 8 0 0 0 -8-8zm-8 48h-16v-32h16z"/><path d="m208 248h-8v-96a8 8 0 0 0 -16 0v96h-8a8 8 0 0 0 -8 8v48a8 8 0 0 0 8 8h8v96a8 8 0 0 0 16 0v-96h8a8 8 0 0 0 8-8v-48a8 8 0 0 0 -8-8zm-8 48h-16v-32h16z"/><path d="m144 312h-8v-160a8 8 0 0 0 -16 0v160h-8a8 8 0 0 0 -8 8v48a8 8 0 0 0 8 8h8v32a8 8 0 0 0 16 0v-32h8a8 8 0 0 0 8-8v-48a8 8 0 0 0 -8-8zm-8 48h-16v-32h16z"/><path d="m80 256h-8v-104a8 8 0 0 0 -16 0v104h-8a8 8 0 0 0 -8 8v48a8 8 0 0 0 8 8h8v88a8 8 0 0 0 16 0v-88h8a8 8 0 0 0 8-8v-48a8 8 0 0 0 -8-8zm-8 48h-16v-32h16z"/><path d="m464 184h-8v-32a8 8 0 0 0 -16 0v32h-8a8 8 0 0 0 -8 8v48a8 8 0 0 0 8 8h8v160a8 8 0 0 0 16 0v-160h8a8 8 0 0 0 8-8v-48a8 8 0 0 0 -8-8zm-8 48h-16v-32h16z"/><path d="m400 312h-8v-160a8 8 0 0 0 -16 0v160h-8a8 8 0 0 0 -8 8v48a8 8 0 0 0 8 8h8v32a8 8 0 0 0 16 0v-32h8a8 8 0 0 0 8-8v-48a8 8 0 0 0 -8-8zm-8 48h-16v-32h16z"/><path d="m336 256h-8v-104a8 8 0 0 0 -16 0v104h-8a8 8 0 0 0 -8 8v48a8 8 0 0 0 8 8h8v88a8 8 0 0 0 16 0v-88h8a8 8 0 0 0 8-8v-48a8 8 0 0 0 -8-8zm-8 48h-16v-32h16z"/></g></svg>