<?xml version="1.0" encoding="UTF-8"?>
<svg xmlns="http://www.w3.org/2000/svg" width="512" height="512" viewBox="0 0 512 512"><g><path d="M460,136H392V36A28.031,28.031,0,0,0,364,8H148a28.031,28.031,0,0,0-28,28V136H52a28.031,28.031,0,0,0-28,28V348a28.031,28.031,0,0,0,28,28h68V476a28.031,28.031,0,0,0,28,28H364a28.031,28.031,0,0,0,28-28V376h68a28.031,28.031,0,0,0,28-28V164A28.031,28.031,0,0,0,460,136Zm-39.1,16-2.67,8H397.77l-2.67-8ZM293.75,24l-4,16h-67.5l-4-16ZM116.9,152l-2.67,8H93.77l-2.67-8ZM52,360a12.01,12.01,0,0,1-12-12V164a12.01,12.01,0,0,1,12-12H74.23l6.18,18.53A8,8,0,0,0,88,176h32a8,8,0,0,0,7.59-5.47L133.77,152H156a12.01,12.01,0,0,1,12,12V348a12.01,12.01,0,0,1-12,12ZM376,476a12.01,12.01,0,0,1-12,12H148a12.01,12.01,0,0,1-12-12V376h20a28.031,28.031,0,0,0,28-28V164a28.031,28.031,0,0,0-28-28H136V36a12.01,12.01,0,0,1,12-12h53.75l6.49,25.94A8,8,0,0,0,216,56h80a8,8,0,0,0,7.76-6.06L310.25,24H364a12.01,12.01,0,0,1,12,12V136H356a28.031,28.031,0,0,0-28,28V348a28.031,28.031,0,0,0,28,28h20Zm96-128a12.01,12.01,0,0,1-12,12H356a12.01,12.01,0,0,1-12-12V164a12.01,12.01,0,0,1,12-12h22.23l6.18,18.53A8,8,0,0,0,392,176h32a8,8,0,0,0,7.59-5.47L437.77,152H460a12.01,12.01,0,0,1,12,12Z"/><path d="M424,336H392a8,8,0,0,0,0,16h32a8,8,0,0,0,0-16Z"/><path d="M120,336H88a8,8,0,0,0,0,16h32a8,8,0,0,0,0-16Z"/><path d="M216,208h60.686l-18.343,18.343a8,8,0,0,0,11.314,11.314l32-32a8,8,0,0,0,0-11.314l-32-32a8,8,0,0,0-11.314,11.314L276.686,192H216a8,8,0,0,0,0,16Z"/><path d="M253.657,349.657a8,8,0,0,0,0-11.314L235.314,320H296a8,8,0,0,0,0-16H235.314l18.343-18.343a8,8,0,1,0-11.314-11.314l-32,32a8,8,0,0,0,0,11.314l32,32a8,8,0,0,0,11.314,0Z"/><path d="M320,456H256a8,8,0,0,0,0,16h64a8,8,0,0,0,0-16Z"/><path d="M344,456a8,8,0,0,0,0,16h8a8,8,0,0,0,0-16Z"/></g></svg>
