<svg height="512" viewBox="0 0 512 512" width="512" xmlns="http://www.w3.org/2000/svg"><g><path d="m364 8h-216a28.031 28.031 0 0 0 -28 28v440a28.031 28.031 0 0 0 28 28h216a28.031 28.031 0 0 0 28-28v-440a28.031 28.031 0 0 0 -28-28zm-70.25 16-4 16h-67.5l-4-16zm82.25 452a12.01 12.01 0 0 1 -12 12h-216a12.01 12.01 0 0 1 -12-12v-440a12.01 12.01 0 0 1 12-12h53.75l6.49 25.94a8 8 0 0 0 7.76 6.06h80a8 8 0 0 0 7.76-6.06l6.49-25.94h53.75a12.01 12.01 0 0 1 12 12z"/><path d="m328 232h-14.06l9.94-9.94a7.985 7.985 0 0 0 0-11.31l-22.63-22.63a7.979 7.979 0 0 0 -11.31 0l-9.94 9.94v-14.06a8 8 0 0 0 -8-8h-32a8 8 0 0 0 -8 8v14.06l-9.94-9.94a7.979 7.979 0 0 0 -11.31 0l-22.63 22.63a7.985 7.985 0 0 0 0 11.31l9.94 9.94h-14.06a8 8 0 0 0 -8 8v32a8 8 0 0 0 8 8h14.06l-9.94 9.94a7.985 7.985 0 0 0 0 11.31l22.63 22.63a7.979 7.979 0 0 0 11.31 0l9.94-9.94v14.06a8 8 0 0 0 8 8h32a8 8 0 0 0 8-8v-14.06l9.94 9.94a7.979 7.979 0 0 0 11.31 0l22.63-22.63a7.985 7.985 0 0 0 0-11.31l-9.94-9.94h14.06a8 8 0 0 0 8-8v-32a8 8 0 0 0 -8-8zm-8 32h-18.74a8 8 0 0 0 -7.54 5.33 39.874 39.874 0 0 1 -1.62 3.91 8.006 8.006 0 0 0 1.56 9.11l13.25 13.25-11.31 11.31-13.25-13.25a8.006 8.006 0 0 0 -9.11-1.56 39.874 39.874 0 0 1 -3.91 1.62 8 8 0 0 0 -5.33 7.54v18.74h-16v-18.74a8 8 0 0 0 -5.33-7.54 39.874 39.874 0 0 1 -3.91-1.62 8.006 8.006 0 0 0 -9.11 1.56l-13.25 13.25-11.31-11.31 13.25-13.25a8.006 8.006 0 0 0 1.56-9.11 39.874 39.874 0 0 1 -1.62-3.91 8 8 0 0 0 -7.54-5.33h-18.74v-16h18.74a8 8 0 0 0 7.54-5.33 39.874 39.874 0 0 1 1.62-3.91 8.006 8.006 0 0 0 -1.56-9.11l-13.25-13.25 11.31-11.31 13.25 13.25a8.006 8.006 0 0 0 9.11 1.56 40.921 40.921 0 0 1 3.91-1.62 8 8 0 0 0 5.33-7.54v-18.74h16v18.74a8 8 0 0 0 5.33 7.54 40.921 40.921 0 0 1 3.91 1.62 8.006 8.006 0 0 0 9.11-1.56l13.25-13.25 11.31 11.31-13.25 13.25a8.006 8.006 0 0 0 -1.56 9.11 39.874 39.874 0 0 1 1.62 3.91 8 8 0 0 0 7.54 5.33h18.74z"/><path d="m360 360a8 8 0 0 0 -8 8v72a8 8 0 0 0 16 0v-72a8 8 0 0 0 -8-8z"/><path d="m360 456a8 8 0 0 0 -8 8v8a8 8 0 0 0 16 0v-8a8 8 0 0 0 -8-8z"/><path d="m256 232a24 24 0 1 0 24 24 24.027 24.027 0 0 0 -24-24zm0 32a8 8 0 1 1 8-8 8.009 8.009 0 0 1 -8 8z"/><path d="m256 144a112 112 0 1 0 112 112 112.123 112.123 0 0 0 -112-112zm0 208a96 96 0 1 1 96-96 96.115 96.115 0 0 1 -96 96z"/></g></svg>