<svg height="512" viewBox="0 0 512 512" width="512" xmlns="http://www.w3.org/2000/svg"><g><path d="m364 8h-216a28.031 28.031 0 0 0 -28 28v440a28.031 28.031 0 0 0 28 28h216a28.031 28.031 0 0 0 28-28v-440a28.031 28.031 0 0 0 -28-28zm-70.25 16-4 16h-67.5l-4-16zm82.25 452a12.01 12.01 0 0 1 -12 12h-216a12.01 12.01 0 0 1 -12-12v-440a12.01 12.01 0 0 1 12-12h53.75l6.49 25.94a8 8 0 0 0 7.76 6.06h80a8 8 0 0 0 7.76-6.06l6.49-25.94h53.75a12.01 12.01 0 0 1 12 12z"/><path d="m360 360a8 8 0 0 0 -8 8v72a8 8 0 0 0 16 0v-72a8 8 0 0 0 -8-8z"/><path d="m360 456a8 8 0 0 0 -8 8v8a8 8 0 0 0 16 0v-8a8 8 0 0 0 -8-8z"/><path d="m240 312h32a8 8 0 0 0 8-8v-96a8 8 0 0 0 -8-8h-32a8 8 0 0 0 -8 8v96a8 8 0 0 0 8 8zm8-96h16v80h-16z"/><path d="m176 312h32a8 8 0 0 0 8-8v-64a8 8 0 0 0 -8-8h-32a8 8 0 0 0 -8 8v64a8 8 0 0 0 8 8zm8-64h16v48h-16z"/><path d="m304 312h32a8 8 0 0 0 8-8v-128a8 8 0 0 0 -8-8h-32a8 8 0 0 0 -8 8v128a8 8 0 0 0 8 8zm8-128h16v112h-16z"/><path d="m360 320h-200v-168a8 8 0 0 0 -16 0v176a8 8 0 0 0 8 8h208a8 8 0 0 0 0-16z"/></g></svg>