<svg height="512" viewBox="0 0 512 512" width="512" xmlns="http://www.w3.org/2000/svg"><g><path d="m364 8h-216a28.031 28.031 0 0 0 -28 28v440a28.031 28.031 0 0 0 28 28h216a28.031 28.031 0 0 0 28-28v-440a28.031 28.031 0 0 0 -28-28zm-70.25 16-4 16h-67.5l-4-16zm82.25 452a12.01 12.01 0 0 1 -12 12h-216a12.01 12.01 0 0 1 -12-12v-440a12.01 12.01 0 0 1 12-12h53.75l6.49 25.94a8 8 0 0 0 7.76 6.06h80a8 8 0 0 0 7.76-6.06l6.49-25.94h53.75a12.01 12.01 0 0 1 12 12z"/><path d="m332 104h-152a28.032 28.032 0 0 0 -28 28v152a28.032 28.032 0 0 0 28 28h152a28.032 28.032 0 0 0 28-28v-152a28.032 28.032 0 0 0 -28-28zm12 180a12.013 12.013 0 0 1 -12 12h-152a12.013 12.013 0 0 1 -12-12v-152a12.013 12.013 0 0 1 12-12h152a12.013 12.013 0 0 1 12 12z"/><path d="m256 152a56 56 0 1 0 56 56 56.063 56.063 0 0 0 -56-56zm0 96a40 40 0 1 1 40-40 40.045 40.045 0 0 1 -40 40z"/><path d="m256 176a32 32 0 1 0 32 32 32.036 32.036 0 0 0 -32-32zm0 48a16 16 0 1 1 16-16 16.019 16.019 0 0 1 -16 16z"/><circle cx="320" cy="144" r="8"/><path d="m200 328h-40a8 8 0 0 0 -8 8v24a8 8 0 0 0 8 8h40a8 8 0 0 0 8-8v-24a8 8 0 0 0 -8-8zm-8 24h-24v-8h24z"/><path d="m352 328h-128a8 8 0 0 0 0 16h128a8 8 0 0 0 0-16z"/><path d="m224 368h64a8 8 0 0 0 0-16h-64a8 8 0 0 0 0 16z"/><path d="m320 368a8 8 0 0 0 0-16h-8a8 8 0 0 0 0 16z"/><path d="m200 384h-40a8 8 0 0 0 -8 8v24a8 8 0 0 0 8 8h40a8 8 0 0 0 8-8v-24a8 8 0 0 0 -8-8zm-8 24h-24v-8h24z"/><path d="m352 384h-128a8 8 0 0 0 0 16h128a8 8 0 0 0 0-16z"/><path d="m288 408h-64a8 8 0 0 0 0 16h64a8 8 0 0 0 0-16z"/><path d="m320 408h-8a8 8 0 0 0 0 16h8a8 8 0 0 0 0-16z"/></g></svg>