<svg height="512" viewBox="0 0 512 512" width="512" xmlns="http://www.w3.org/2000/svg"><g><path d="m364 8h-216a28.031 28.031 0 0 0 -28 28v440a28.031 28.031 0 0 0 28 28h216a28.031 28.031 0 0 0 28-28v-440a28.031 28.031 0 0 0 -28-28zm-70.25 16-4 16h-67.5l-4-16zm82.25 452a12.01 12.01 0 0 1 -12 12h-216a12.01 12.01 0 0 1 -12-12v-440a12.01 12.01 0 0 1 12-12h53.75l6.49 25.94a8 8 0 0 0 7.76 6.06h80a8 8 0 0 0 7.76-6.06l6.49-25.94h53.75a12.01 12.01 0 0 1 12 12z"/><path d="m299.578 200.845-80-40a8 8 0 0 0 -11.578 7.155v80a8 8 0 0 0 11.578 7.155l80-40a8 8 0 0 0 0-14.31zm-75.578 34.211v-54.112l54.111 27.056z"/><path d="m332 104h-152a28.032 28.032 0 0 0 -28 28v152a28.032 28.032 0 0 0 28 28h152a28.032 28.032 0 0 0 28-28v-152a28.032 28.032 0 0 0 -28-28zm12 180a12.013 12.013 0 0 1 -12 12h-152a12.013 12.013 0 0 1 -12-12v-152a12.013 12.013 0 0 1 12-12h152a12.013 12.013 0 0 1 12 12z"/><path d="m352 344h-129.376a24 24 0 0 0 -45.248 0h-17.376a8 8 0 0 0 0 16h17.376a24 24 0 0 0 45.248 0h129.376a8 8 0 0 0 0-16zm-152 16a8 8 0 1 1 8-8 8.009 8.009 0 0 1 -8 8z"/><path d="m200 400h-40a8 8 0 0 0 -8 8v24a8 8 0 0 0 8 8h40a8 8 0 0 0 8-8v-24a8 8 0 0 0 -8-8zm-8 24h-24v-8h24z"/><path d="m352 400h-128a8 8 0 0 0 0 16h128a8 8 0 0 0 0-16z"/><path d="m288 424h-64a8 8 0 0 0 0 16h64a8 8 0 0 0 0-16z"/><path d="m320 424h-8a8 8 0 0 0 0 16h8a8 8 0 0 0 0-16z"/></g></svg>