<?xml version="1.0" encoding="UTF-8"?>
<svg xmlns="http://www.w3.org/2000/svg" width="512" height="512" viewBox="0 0 512 512"><g><path d="M456,232V208a8,8,0,0,0-8-8V168a16.021,16.021,0,0,0-16-16h-.69A184.363,184.363,0,0,0,312,32.69V16a8,8,0,0,0-8-8H208a8,8,0,0,0-8,8V32.69A184.363,184.363,0,0,0,80.69,152H80a16.021,16.021,0,0,0-16,16v32a8,8,0,0,0-8,8v24A48.051,48.051,0,0,0,8,280v96a48.051,48.051,0,0,0,48,48h56a8,8,0,0,0,8-8V400h4a28.031,28.031,0,0,0,28-28V284a28.031,28.031,0,0,0-28-28h-4V208a8,8,0,0,0-8-8h-8V160a8,8,0,0,0-6.48-7.85A169.253,169.253,0,0,1,200.15,49.52,8,8,0,0,0,208,56h96a8,8,0,0,0,7.85-6.48A169.253,169.253,0,0,1,414.48,152.15,8,8,0,0,0,408,160v40h-8a8,8,0,0,0-8,8v48h-4a28.031,28.031,0,0,0-28,28v88a28.031,28.031,0,0,0,28,28h4v16a8,8,0,0,0,8,8h24v16a32.036,32.036,0,0,1-32,32H310.62A24.031,24.031,0,0,0,288,456H224a24,24,0,0,0,0,48h64a24.031,24.031,0,0,0,22.62-16H392a48.051,48.051,0,0,0,48-48V424h16a48.051,48.051,0,0,0,48-48V280A48.051,48.051,0,0,0,456,232ZM120,272h4a12.01,12.01,0,0,1,12,12v88a12.01,12.01,0,0,1-12,12h-4ZM80,168h8v32H80Zm24,240H56a32.036,32.036,0,0,1-32-32V280a32.036,32.036,0,0,1,32-32h48Zm0-192v16H72V216ZM296,40H216V24h80Zm96,344h-4a12.01,12.01,0,0,1-12-12V284a12.01,12.01,0,0,1,12-12h4Zm-96.11,97.27A8,8,0,0,1,288,488H224a8,8,0,0,1,0-16h64a8,8,0,0,1,7.89,6.73,7.386,7.386,0,0,0,0,2.54ZM424,168h8v32h-8Zm-16,48h32v16H408Zm80,160a32.036,32.036,0,0,1-32,32H408V248h48a32.036,32.036,0,0,1,32,32Z"/><path d="M88,264a8,8,0,0,0-8,8v48a8,8,0,0,0,16,0V272A8,8,0,0,0,88,264Z"/><path d="M88,336a8,8,0,0,0-8,8v8a8,8,0,0,0,16,0v-8A8,8,0,0,0,88,336Z"/></g></svg>
