<svg height="512" viewBox="0 0 512 512" width="512" xmlns="http://www.w3.org/2000/svg"><g><path d="m222.343 337.657a8 8 0 0 0 11.314 0l56-56a8 8 0 0 0 -11.314-11.314l-56 56a8 8 0 0 0 0 11.314z"/><circle cx="232" cy="280" r="8"/><circle cx="280" cy="328" r="8"/><path d="m176 304a80 80 0 1 0 80-80 80.091 80.091 0 0 0 -80 80zm144 0a64 64 0 1 1 -64-64 64.072 64.072 0 0 1 64 64z"/><path d="m398.29 171.06-88-112a8 8 0 0 0 -6.29-3.06h-40v-40a8 8 0 0 0 -16 0v40h-40a8 8 0 0 0 -6.29 3.06l-88 112a7.984 7.984 0 0 0 -1.71 4.94v320a8 8 0 0 0 8 8h272a8 8 0 0 0 8-8v-320a7.984 7.984 0 0 0 -1.71-4.94zm-134.29-64.89a15.954 15.954 0 0 1 0 27.66zm120 381.83h-256v-309.23l83.89-106.77h36.11v17.01a32 32 0 1 0 16 0v-17.01h36.11l83.89 106.77zm-136-381.83v27.66a15.954 15.954 0 0 1 0-27.66z"/><path d="m200 464h-56a8 8 0 0 0 0 16h56a8 8 0 0 0 0-16z"/><path d="m232 464h-8a8 8 0 0 0 0 16h8a8 8 0 0 0 0-16z"/></g></svg>