<?xml version="1.0" encoding="UTF-8"?>
<svg xmlns="http://www.w3.org/2000/svg" width="512" height="512" viewBox="0 0 512 512"><g><path d="M287.309,271.365A39.9,39.9,0,0,0,272,232.022V104a8,8,0,0,0-8-8H232a8,8,0,0,0-8,8V232.022A39.985,39.985,0,0,0,248,304c1.3,0,2.593-.068,3.865-.19L292.652,344.6a8,8,0,0,0,11.315,0L326.6,321.967a8,8,0,0,0,0-11.315ZM240,112h16V224.805a40.154,40.154,0,0,0-16,0ZM224,264a24,24,0,1,1,24,24A24.028,24.028,0,0,1,224,264Zm74.31,63.627-29.487-29.489a40.314,40.314,0,0,0,11.715-10.916l29.089,29.088Z"/><path d="M496,8H312a8,8,0,0,0-8,8V30.58A241.223,241.223,0,0,0,248,24,240.006,240.006,0,0,0,78.29,433.71,240.067,240.067,0,0,0,471.35,176H496a8,8,0,0,0,8-8V16A8,8,0,0,0,496,8ZM312,176h16v40a8,8,0,0,0,13.66,5.66L387.31,176h31.36A192.2,192.2,0,0,1,440,264c0,105.87-86.13,192-192,192S56,369.87,56,264,142.13,72,248,72a192.2,192.2,0,0,1,56,8.3V168A8,8,0,0,0,312,176Zm160,88A224,224,0,0,1,89.61,422.39,224.064,224.064,0,0,1,304,47.07V63.64A208.023,208.023,0,0,0,248,56C133.31,56,40,149.31,40,264s93.31,208,208,208,208-93.31,208-208a208.525,208.525,0,0,0-19.49-88h17.54A222.222,222.222,0,0,1,472,264Zm16-104H384a8.008,8.008,0,0,0-5.66,2.34L344,196.69V168a8,8,0,0,0-8-8H320V24H488Z"/><path d="M392,104a8,8,0,0,0,0,16h8a8,8,0,0,0,16,0h8a8,8,0,0,0,8-8V88a8,8,0,0,0-8-8H400V72h24a8,8,0,0,0,0-16h-8a8,8,0,0,0-16,0h-8a8,8,0,0,0-8,8V88a8,8,0,0,0,8,8h24v8Z"/></g></svg>
