<?xml version="1.0" encoding="UTF-8"?>
<svg xmlns="http://www.w3.org/2000/svg" width="512" height="512" viewBox="0 0 512 512"><g><path d="M256,248a24,24,0,1,0,24,24A24.028,24.028,0,0,0,256,248Zm0,32a8,8,0,1,1,8-8A8.009,8.009,0,0,1,256,280Z"/><path d="M256,160A112,112,0,1,0,368,272,112.123,112.123,0,0,0,256,160Zm0,208a96,96,0,1,1,96-96A96.115,96.115,0,0,1,256,368Z"/><path d="M476,32H36A28.031,28.031,0,0,0,8,60V452a28.031,28.031,0,0,0,28,28H476a28.031,28.031,0,0,0,28-28V60A28.031,28.031,0,0,0,476,32Zm12,420a12.01,12.01,0,0,1-12,12H36a12.01,12.01,0,0,1-12-12V96H488Zm0-372H24V60A12.01,12.01,0,0,1,36,48H476a12.01,12.01,0,0,1,12,12Z"/><path d="M328,248H313.94l9.94-9.94a7.985,7.985,0,0,0,0-11.31l-22.63-22.63a7.985,7.985,0,0,0-11.31,0L280,214.06V200a8,8,0,0,0-8-8H240a8,8,0,0,0-8,8v14.06l-9.94-9.94a7.985,7.985,0,0,0-11.31,0l-22.63,22.63a7.985,7.985,0,0,0,0,11.31l9.94,9.94H184a8,8,0,0,0-8,8v32a8,8,0,0,0,8,8h14.06l-9.94,9.94a7.985,7.985,0,0,0,0,11.31l22.63,22.63a7.985,7.985,0,0,0,11.31,0l9.94-9.94V344a8,8,0,0,0,8,8h32a8,8,0,0,0,8-8V329.94l9.94,9.94a7.985,7.985,0,0,0,11.31,0l22.63-22.63a7.985,7.985,0,0,0,0-11.31L313.94,296H328a8,8,0,0,0,8-8V256A8,8,0,0,0,328,248Zm-8,32H301.26a8,8,0,0,0-7.54,5.33,39.874,39.874,0,0,1-1.62,3.91,8.006,8.006,0,0,0,1.56,9.11l13.25,13.25L295.6,322.91l-13.25-13.25a8.022,8.022,0,0,0-9.11-1.56,39.874,39.874,0,0,1-3.91,1.62,8,8,0,0,0-5.33,7.54V336H248V317.26a8,8,0,0,0-5.33-7.54,39.874,39.874,0,0,1-3.91-1.62,8.022,8.022,0,0,0-9.11,1.56L216.4,322.91,205.09,311.6l13.25-13.25a8.006,8.006,0,0,0,1.56-9.11,39.874,39.874,0,0,1-1.62-3.91,8,8,0,0,0-7.54-5.33H192V264h18.74a8,8,0,0,0,7.54-5.33,39.874,39.874,0,0,1,1.62-3.91,8.006,8.006,0,0,0-1.56-9.11L205.09,232.4l11.31-11.31,13.25,13.25a8.006,8.006,0,0,0,9.11,1.56,39.874,39.874,0,0,1,3.91-1.62,8,8,0,0,0,5.33-7.54V208h16v18.74a8,8,0,0,0,5.33,7.54,39.874,39.874,0,0,1,3.91,1.62,8.006,8.006,0,0,0,9.11-1.56l13.25-13.25,11.31,11.31-13.25,13.25a8.006,8.006,0,0,0-1.56,9.11,39.874,39.874,0,0,1,1.62,3.91,8,8,0,0,0,7.54,5.33H320Z"/><path d="M48,72h8a8,8,0,0,0,0-16H48a8,8,0,0,0,0,16Z"/><path d="M80,72h8a8,8,0,0,0,0-16H80a8,8,0,0,0,0,16Z"/><path d="M112,72h8a8,8,0,0,0,0-16h-8a8,8,0,0,0,0,16Z"/><path d="M136,112H48a8,8,0,0,0,0,16h88a8,8,0,0,0,0-16Z"/><path d="M64,136H48a8,8,0,0,0,0,16H64a8,8,0,0,0,0-16Z"/><path d="M472,408H424a8,8,0,0,0-8,8v24a8,8,0,0,0,8,8h48a8,8,0,0,0,8-8V416A8,8,0,0,0,472,408Zm-8,24H432v-8h32Z"/><path d="M400,408H320a8,8,0,0,0,0,16h80a8,8,0,0,0,0-16Z"/><path d="M400,432H376a8,8,0,0,0,0,16h24a8,8,0,0,0,0-16Z"/><path d="M96,136H88a8,8,0,0,0,0,16h8a8,8,0,0,0,0-16Z"/></g></svg>
